/* XPM */
static char *ec872db08b1d4f6d91c5514ad3c4e12eSut4exaniy6Tx8MO[] = {
/* columns rows colors chars-per-pixel */
"64 64 35 1 ",
"  c #55400B",
". c #97792E",
"X c #BB9941",
"o c #BD9B75",
"O c #CFAA4B",
"+ c #DAB351",
"@ c #C6AE71",
"# c #E9C059",
"$ c #EBC659",
"% c #ECC759",
"& c #EDCB5A",
"* c #EDCC59",
"= c #EFD15A",
"- c #F0D35A",
"; c #F1D55A",
": c #F2D95A",
"> c #F3DC5A",
", c #F4DD5B",
"< c #F5E15B",
"1 c #F7E55B",
"2 c #F6E05C",
"3 c #F8E75B",
"4 c #F8E85B",
"5 c #F9EB5C",
"6 c #FAED5C",
"7 c #FFFA5D",
"8 c #D1BA8A",
"9 c #D5C496",
"0 c #F1D48C",
"q c #DACFA3",
"w c #E3DBB0",
"e c #E7E4BB",
"r c #F6E3B5",
"t c #EDEBCB",
"y c white",
/* pixels */
"oooooooooooooooooooooooooooooooooooooooooooooooooooooooooooooooo",
"oooooooooooooooooooooooooooooooooooooooooooooooooooooooooooooooo",
"ooqqee99qq9999ee88899eeqqtt88qq88wqqee99qq9999ee88899eeqqtt88qoo",
"ooqqee99qq9999ee88899eeqqtt88qq88wqqee99qq9999ee88899eeqqtt88qoo",
"ooee889999eeee88qqqqqqq99qq99ee88@ee889999eeee88qqqqqqq99qq99eoo",
"ooee889999eeee88qqqqqqq99qq99ee88@ee889999eeee88qqqqqqq99qq99eoo",
"oowwww99qq88@@88888ww99wwqqee88eeqwwww99qq88@@88888ww99wwqqee8oo",
"oowwww99qq88@@88888ww99wwqqee88eeqwwww99qq88@@88888ww99wwqqee8oo",
"oo88wwqq99wwqqwwqqqwwqqqq9988@@99q88wwqq99wwqqwwqqqwwqqqq9988@oo",
"oo88wwqq99wwqqwwqqqwwqqqq9988@@99q88wwqq99wwqqwwqqqwwqqqq9988@oo",
"oo88@@88qqwwwwqq999qqww99qqqq99www88@@88qqwwwwqq999qqww99qqqq9oo",
"oo88@@88qqwwwwqq999qqww99qqqq99www88@@88qqwwwwqq999qqww99qqqq9oo",
"ooeeqq9999ttwwqq8889988qqqq99qq@@8eeqq9999ttwwqq8889988qqqq99qoo",
"ooeeqq9999ttwwqq8889988qqqq99qq@@8eeqq9999ttwwqq8889988qqqq99qoo",
"oo99qqqq9988tt88@@@889999qqeeqq99q99qqqq9988tt88@@@889999qqeeqoo",
"oo99qqqq9988tt88@@@889999qqeeqq99q99qqqq9988tt88@@@889999qqeeqoo",
"oowwww998888@@88888ww99eewwqq9999qwwww998888@@88888ww99eewwqq9oo",
"oowwww998888@@88888ww99eewwqe8888qwwww998888@@88888ww99eewwqq9oo",
"oo@@8899qqqq9988@@y88qq88eeq@88888@@8899qqqq9988@@@88qq88eeqqwoo",
"oo@@8899qqqq9988@@@88qq88eeq@tttt8@@8899qqqq9988@@@88qq88eeqqwoo",
"oo99qqwwqq99qqwwqqqqq@@889988tttt@@@qqwwqq99qqwwqqqqq@@88@@999oo",
"oo99qqwwqq99qqwwqqqqq@@888888@@88888qqwwqq99qqwwqqqqq@@88@@999oo",
"oo99qqqqwwqq99qqwwwww88888888@@88888qqqqwwqq99qqwwwww888899qq9oo",
"oo99qqqqwwqq99qqwwyww8888qqqq9988@@@qqqqwwqq99qqwwwww888899qq9oo",
"ooqq99ww9988qq99eeettwwqqqqqq998O......      q99eeettwwqq99ttqoo",
"ooqq99ww9988qq99eeettwwqqqq99qOXry77,#####,,  99eeettwwqq99ttqoo",
"ooqqeeeeww8888ww@@ywwqqwwqq9+Xrr777,####,,  # ww@@@wwqqwwtt889oo",
"ooqqeeeeww8888ww@@ywwqqwww+Xrr2277,####,  ##<# w@@@wwqqwwtt889oo",
"ooww@@88ttwwwwyq88y@@wwq+Xrr,7777,####, ##46<# q888@@wwqq8899qoo",
"ooww@@88ttwwwwqq88y@@eyXrr#,7777,###,  #,<14<# q888@@wwqq8899qoo",
"ooqqee99qq9999eey8y@yXrr##,7777,###..##;:,<35<# 88899eeqqtt88qoo",
"ooqqee99qq9999ee8yyyrr###,7777,##..,&*=;:><14<# 88899eeqqtt88qoo",
"ooqq88y99y9yyyyyyyyyyyyyOyXOOy...r,#$&*=;:,<1<# 888ww99wwqqee8oo",
"ooqq88999999wwqqXyyy7722772-&*&%.r,##$&*=;:,<1<# 88ww99wwqqee8oo",
"ooqqee99qq9999eXy&y7y722772-&*&%$.,###$&*-;:,<<# 8899eeqqtt88qoo",
"ooqqee99qq9999e.r*y7772 7772&*&%$.r###$&*=;:><<<# 899eeqqtt88qoo",
"ooee88ee99eeeeyr-*y77     72&*&%$.r####$&*=;:><<# qqqqq99qq99eoo",
"ooee88ee99eeee.*-*y7 72 77 2&*&%$#.,####$&*=;:,< qqqqqq99qq99eoo",
"oowwww99qq88@X0*-*27 72 7772&*&%$#.,#####$&*-;: 888ww99wwqqee8oo",
"oowwww99qq88@X$*-*y77     72&*&*$#.y######$&*- 8888ww99wwqqee8oo",
"oo88wwqq99wwq.$*-*27772 77 2&*&%$## ######$&* wwqqqwwqqqq9988@oo",
"oo88wwqq99wwXr$*-*27 72 77 2&*&%$## #######$ qwwqqqwwqqqq9988@oo",
"oo88@@88qqww.#$*-*277     72&*&%$## y###### qqww999qqww99qqqq9oo",
"oo88@@88qqww.#$*-*y7772 7772&*&%$### ,#### wwwww999qqww99qqqq9oo",
"ooeeqq9999t.r#$*-*2777227772&*&%$### ,### ttww8q8889988qqqq99qoo",
"ooeeqq9999t.##$*&*2777227772&*&%$### y,, 9tt99ww88qq988qqqq99qoo",
"oo99qqqq99.r##$*&*2777227772&*&%$###, y 99889999qq8889999qqeeqoo",
"oo99qqqq99.                            q9988qqqqqq8889999qqeeqoo",
"oowwww998888@@88888ww99eewwqq9@@88wwww998888qq999988w99eewwqq9oo",
"oowwww998888@@88888ww99eewwqq9@@88wwww998888wwqq9988w99eewwqq9oo",
"oo@@8899qqqq9988@@@88qq88eeqqw9988@@8899qqqqwwqqqq888qq88eeqqwoo",
"oo@@8899qqqq9988@@@88qq88eeqqw9988@@8899qqqq8899qq888qq88eeqqwoo",
"oo99qqwwqq99qqwwqqqqq@@88@@999qqww99qqwwqq99889999wwq@@88@@999oo",
"oo99qqwwqq99qqwwqqqqq@@88@@999qqww99qqwwqq9988@@99wwq@@88@@999oo",
"oo99qqqqwwqq99qqwwwww888899qq999qq99qqqqwwqq88@@@@qqw888899qq9oo",
"oo99qqqqwwqq99qqwwwww888899qq999qq99qqqqwwqq88tt@@qqw888899qq9oo",
"ooqq99ww9988qq99eeettwwqq99ttqqq99qq99ww998888tttt99twwqq99ttqoo",
"ooqq99ww9988qq99eeettwwqq99ttqqq99qq99ww9988qqwwtt99twwqq99ttqoo",
"ooqqeeeeww8888ww@@@wwqqwwtt88988wwqqeeeeww88qqwwwwwwwqqwwtt889oo",
"ooqqeeeeww8888ww@@@wwqqwwtt88988wwqqeeeeww8qqqwwwwwwwqqwwtt889oo",
"ooww@@88ttwwwwqq888@@wwqq8899qwwqqww@@88ttwqqqwwwwqq@wwqq8899qoo",
"ooww@@88ttwwwwqq888@@wwqq8899qwwqqww@@88ttwwwwwwqqqq@wwqq8899qoo",
"oooooooooooooooooooooooooooooooooooooooooooooooooooooooooooooooo",
"oooooooooooooooooooooooooooooooooooooooooooooooooooooooooooooooo"
};
