/* XPM */
static char *_9d635decd6143b0ac908a0e21b6d635OXHbPutBpktKzEuw[] = {
/* columns rows colors chars-per-pixel */
"64 64 45 1 ",
"  c #020203",
". c #030305",
"X c #040306",
"o c #050407",
"O c #07070B",
"+ c #07070C",
"@ c #08070C",
"# c #08080D",
"$ c #0A090F",
"% c #0B0B12",
"& c #0C0B13",
"* c #0C0C13",
"= c #0F0E17",
"- c #0F0E18",
"; c #100F18",
": c #100F19",
"> c #12111B",
", c #13121E",
"< c #14131F",
"1 c #151320",
"2 c #171523",
"3 c #171623",
"4 c #171624",
"5 c #191726",
"6 c #191827",
"7 c #1B192A",
"8 c #1C1A2A",
"9 c #1D1B2C",
"0 c #1D1C2D",
"q c #1F1D30",
"w c #211F33",
"e c #222034",
"r c #403D55",
"t c #AC3232",
"y c #DF7126",
"u c #FBF236",
"i c #BD9B75",
"p c #C6AE71",
"a c #D1BA8A",
"s c #D5C496",
"d c #DACFA3",
"f c #E3DBB0",
"g c #E7E4BB",
"h c #EDEBCB",
"j c white",
/* pixels */
"iiiiiiiiiiiiiiiiiiiiiiiiiiiiiiiiiiiiiiiiiiiiiiiiiiiiiiiiiiiuuiii",
"iiiiiiiiiiiiiiiiiiiiiiiiiiiiiiiiiiiiiiiiiiiiiiiiiiiiiiuuuiiiuuui",
"iiddggssddssssggaaassggddhhaaddaafddggssddssssggaaasuugddhhaadui",
"iiddggssddssssggaaassggddhhaaddaafddggssddssssggaaasuggddhhaaduu",
"iiggaassssggggaadddddddssddssggaapggaassssggggaadddduddsuuuuugiu",
"iiggaassssggggaadddddddssddssggaapggaassssggggaadddddddusddsugii",
"iiffffssddaappaaaaaffssffddggaaggdffffssddaappaaaaaffssffudggaii",
"iiffffssddaappaaaaaffssffd09988777765fssddaappaaaaaffssffdygguii",
"iiaaffddssffddffdddffdq000rrrrrr77r555433sffddf   dffd tttyaauii",
"iiaaffddssffddffdddfwqrrrr99877776555r43333fdd rrw  f dddssauuii",
"iiaappaaddffffddsswwrr000998777766555433333<< rwwww, ffssduuusuu",
"iiaappaaddffffddwwrrq0009988777765554333331<<,,www,,= fssddduuui",
"iiggddsssshhffdwrrwq0009988777765554333331<<,,,> ,,==  ddddsudii",
"iiggddsssshhfewrwwq0000998777766555433333<,,,,,>> ==  = dddssdii",
"iissddddssaaerrwwq0000998877766555333333<,,,,,>>>::   = sddggdii",
"iissddddssaerwwwqq0009988777765553333331<,,,,>>>::-= =  sddggdii",
"iiffffssaaerwwwwq0jj9998777765553333111<<,,,,>>::====  ggffddsii",
"iiffffssaerwwwwqjjrrj98777766555333311<<,,,,>>>::====  ggffddsii",
"iippaasserwwwwqjrr09j88777765554333331<<,,,>>>::======*aaggddfii",
"iippaassewwwwjjr0099j8777765554333331<<,,,>>>::-=====*&aaggddfii",
"iissddferwwwjrr00099j777766555433331<<,,,,>>:::======&&%appsssii",
"iissdderwwwjr0000998j77766555433333<<,,,jj>>::======*&%%%ppsssii",
"iissdderwwwjq0009988j77765554333331<<jjjr0j::-=====*&%%%%ssddsii",
"iissderwwwjr0009988j77765554333331<<jrr009j:-=====*&&%%%$$sddsii",
"iiddserwwwj00009987j7766555433333<<jr00099j:====**&&%%%$$$shhdii",
"iiddswwwwjr0009988j77765554333331<jr000099j=====&%&%%%%$$$shhdii",
"iiddwrwwqj0009988j777655543333311jr0000099j====*%&&%%%$$$$@aasii",
"iiddwwwwqj009998j77765555433331<jr00009998j===*=%&%%%$$$$@+aasii",
"iiffwwwq0jr0998j7776655543331<,jrq00099988j===**&%%$$$$$$@Ossdii",
"iifwrwqq0jr998j7777655543333<,jrq00099888j====*&%%%$$$$$@OOOsdii",
"iidwwwj000jjjj777765554333331<jr000099887j===*&&%%$$$$$@OOOOadii",
"iidwrjj000998777766555433331<jr000099888j====&&%%%$$$$@OOOOOadii",
"iidwqj000998877766555433333<<j000099879j===*%%%%%$$$$$@OOOOOgaii",
"iidqqj009988777765554333331<<j000999879j===*%%%$%$$$$@OOOOOOgaii",
"iidq0j099887777655jj433331<<,j00099977j*===&&%%%$$$$@+OOOOOoadii",
"iid007j9987777665jjj3333<<<,,jr00998jj====*&%%%$$$$@@OOOOOooadii",
"iig0009j787777655jjj3333<<<,,jr9998j=====*&%%%%$$$$@OOOOoXoosgii",
"iig009987777765553jj3331<<,,,>jjjjj=====*&&%%%$$$$@OOOOOo.o.sgii",
"iif00998777765553333331<<,,,,>>::-======&&%%%$$$$@OOOOOoXoX.gaii",
"iiff9987j7766555333333<<,,,,>>>::======*&%%$$$$$@@OOOOOo...ggaii",
"iiaa9887j67655543333<<<<,,,>>>::=====**&%%%%$$$$OOOOOoooo..aapii",
"iiaa8877j66j55433333<,<,,,>>>::-=====*&&%%%$$$$@OOOOOooXX..aapii",
"iiaap777jj6j55433333<<,,,,>>:::======&&%%%$$$$@+OOOOOooX..dddsii",
"iiaap7776j5,j4333331<,,,,>>>::-=====*j%%%%$$$$@OOOOOOoo...dddsii",
"iiggd7776j55j33j33<<<,,,>>>::=====**&j%%%$$$$@OOOOOOoo... dssdii",
"iiggdd765j55j33,31<<,,,=>>::-====*===j%%$$$$@OOOOOOooX...ddssdii",
"iissdd665j,4j33j3<j,,,=jjj*:====**==j%$$$$$@@OOOOOooX... ddggdii",
"iissddd5554jj33j<<j,,,j>>:j=jj*=**jj%$%$$$$@OOOOOOoo... sddggdii",
"iiffffss5433,,3j<<j,,>j>::=====jjj&%%%$$$@@OOOOOo.oX.. ggffddsii",
"iiffffss54333jjj<,j,,,j:::======&&%%%$$$$@OOOOOOX.X... ggffddsii",
"iippaassd33333<j>,j,>j>::======*&%%%$$$$$@OOOOOo.X... daaggddfii",
"iippaassdd3331<<,jj>>j::======*&&%%%$$$$@OOOOOOo.... ddaaggddfii",
"iissddffdds31<<,,,j,>j:-======&&%%%$$$$@OOOOOOooX...dppaappsssii",
"iissddffddss<<,,,,>jjj:====**&&%%%$$$$@OOOOOOooX...fdppaappsssii",
"iissddddffdds,,,,>>>::-=====*&%%$$$$$$@OOOOOOoo...ddfaaaassddsii",
"iissddddffddssd,>>>::-=====*&&%%%$$$$@OOOOOOoo..ppddfaaaassddsii",
"iiddssffssaaddss>>::-======&&%%%$$$$@+OOOOOooX.hhhsshffddsshhdii",
"iiddssffssaaddssgg::======*&%%%$$$$$@OOOOOooXdffhhsshffddsshhdii",
"iiddggggffaaaaffpppf====**&%%%%$$$$@OOOOoooaddfffffffddffhhaasii",
"iiddggggffaaaaffpppffd==*&&%%%$$$$@OOOOOofadddfffffffddffhhaasii",
"iiffppaahhffffddaaappffdda%%%$$$$++OOpaahhfdddffffddpffddaassdii",
"iiffppaahhffffddaaappffddaassdffddffppaahhffffffddddpffddaassdii",
"iiiiiiiiiiiiiiiiiiiiiiiiiiiiiiiiiiiiiiiiiiiiiiiiiiiiiiiiiiiiiiii",
"iiiiiiiiiiiiiiiiiiiiiiiiiiiiiiiiiiiiiiiiiiiiiiiiiiiiiiiiiiiiiiii"
};
