/* XPM */
static char *result[] = {
/* columns rows colors chars-per-pixel */
"64 64 36 1 ",
"  c black",
". c #0E0C0C",
"X c #2D1B1E",
"o c #1E2415",
"O c #333C24",
"+ c #222034",
"@ c #612721",
"# c #663931",
"$ c #586335",
"% c #594D4D",
"& c #595652",
"* c #B9451D",
"= c #8F563B",
"- c #886E6A",
"; c #7F8E44",
": c #E88A36",
"> c #BD9B75",
", c #D9A066",
"< c #C6AE71",
"1 c #E2B27E",
"2 c #C4C55B",
"3 c #33808F",
"4 c #408694",
"5 c #4199AA",
"6 c #6FD1E4",
"7 c #D1BA8A",
"8 c #D5C496",
"9 c #EEC39A",
"0 c #DACFA3",
"q c #E3DBB0",
"w c #F6D9BD",
"e c #E7E4BB",
"r c #FFE0B7",
"t c #EADFCA",
"y c #EDEBCB",
"u c #F4F2E0",
/* pixels */
">>>>>>>>>>>>>>>>>>>>>>>>               >>>>>>>>>>>>>>>>>>>>>>>>>",
">>>>>>>>>>>>>>>>>>>>>>>                 >>>>>>>>>>>>>>>>>>>>>>>>",
">>00ee88008888ee77788ee                 008888ee77788ee00yy770>>",
">>00ee88008888ee77788ee                 008888ee77788ee00yy770>>",
">>ee778888eeee770000000                 88eeee770000000880088e>>",
">>ee778888eeee77000                          e770000000880088e>>",
">>qqqq880077<<77777                          <77777qq88qq00ee7>>",
">>qqqq880077<<77777q                        <<77777qq88qq00ee7>>",
">>77qq0088qq00qq000qq   ,99999999999999,   q00qq000qq00008877<>>",
">>77qq0088qq00qq000qq00,++              ,8qq00qq000qq00008877<>>",
">>77<<7700qqqq0088800qq,9++&     &+    9,0qqqq00888,,,,,800008>>",
">>77<<7700qqqq0088800qq,9,  &  ,9 &   ,9,0qqqq0088,w9999,00008>>",
">>ee008888yyqq0077788770,w9  &9,99 & 99,88yyqq007,w999999,0880>>",
">>ee008888yyqq0077788770,w99999,,999999,88yyqq007,99999999,880>>",
">>8800008877yy77<<<778888,w,99=,,=99,9,08877yy77<,9,19,9,9,ee0>>",
">>8800008877yy77<<<778888,,,9=####=9,,,08877yy77<,w,,1,1,1,ee0>>",
">>qqqq887777<<77777qq88OOO,,w#9,,9#9,,oOOoO7<<777o,w9,,,,,q008>>",
">>qqqq887777<<77777qq8O22$OO,,=,,=,,ooO$$$$o<<777O;,,$$o  q008>>",
">><<778800008877<<<77O2;;;$;OO,==,ooO$o;;;;$O877O;; $$ott e00q>>",
">><<778800008877<<<7O2;;;;;O;;OOOOO$$o;;;;$;$O77O;$ $$Ottu 00q>>",
">>8800qq008800qq0000O;;;;;;;$O$;;$$O$;;;;;$;$$OO;;$ 64Ott3 888>>",
">>8800qq008800qq000O;$O;;;;;;;$$OOO;;;;;;$$$$$$O;$$ 456445 888>>",
">>880000qq008800qqO;$$O;;;;;;;;;$;;;;;;;$$O$$$O;;$ 654464 8008>>",
">>880000qq008800qqO;$O$O;;;;;;;;O;;;;;;$$$o$$$O;$$$      88008>>",
">>0088qq88770088eO2$O;;$O;;;;;;;O;;;;;;$$o$$$$O;$$$$$Oq0088yy0>>",
">>0088qq88770088eO;O;;;;O2;;;;;;$;;;;;$$$oo$$$o;$$$$$Oq0088yy0>>",
">>00eeeeqq7777qqO;O$;;;;$O;;;;;;O;;;;;$$Oq7oo$$oO$$$o00qqyy778>>",
">>00eeeeqq7777qqO;O;;;;$OO;;;;;;$;;;;;;$oq777oo$;$$$O00qqyy778>>",
">>qq<<77yyqqqq0O2O$;;;$O0O;;;;;;$;;;;;;$oyqqqq0oOOOO<qq0077880>>",
">>qq<<77yyqqqq0O;O;;;$O00O;;;;;;O;;;;;;$oyqqqq00777<<qq0077880>>",
">>00ee88008888eO;$;;$Oe00O2;;;;;$;;;;;;$O08888ee77788ee00yy770>>",
">>00ee88008888O2O;;;Oee88qO;;;;;$;;;;;;$$O8888ee77788ee00yy770>>",
">>0077888888qqO;O;;OOee880O;;;;;$;;;;;;;$o77<<77777qq88qq00ee7>>",
">>0077888888qqO;O;O$Oeeqq0O;;;;;O;;;;;;;$Oo7<<77777qq88qq00ee7>>",
">>00ee88008888eOOO$$Oee00O2;;;;;$;;;;;;;$Oo888ee77788ee00yy770>>",
">>00ee88008888eO;$;$Oee00O2;;;;;$;;;;;;;$Oo888ee77788ee00yy770>>",
">>ee77ee88eeee7O;;$OO0088O2;;;;;O;;;;;$$OOoeee770000000880088e>>",
">>ee77ee88eeee77OOO1,008O2;;;;;$O;$$$OOOOOoeee770000000880088e>>",
">>qqqq880077<<77,,,9,88qO2;;;;;$OOOOO%%%%%Oo<<77777qq88qq00ee7>>",
">>qqqq880077<<7,,119911%-O2;;;;$O%%%%%---%Oo<<77777qq88qq00ee7>>",
">>77qq0088qq00.,1999991.--O2;;;$O--%------%O00qq000qq00008877<>>",
">>77qq0088qq00 ,99999,, ---O;;;$O--%-------%00qq000qq00008877<>>",
">>77<<7700qqqq ,9,9,91 %----OO;$O-%--------%00qq88800qq8800008>>",
">>77<<7700qqqq ,1,1,91 -------OOO-%--------%qqqq88800qq8800008>>",
">>ee008888yyqq00777,11 -%%%%---%--%-------%%qq7077788770000880>>",
">>ee008888yyqq00777 1, ,999%%--%%%%--%%%%%%,88qq77008770000880>>",
">>8800008877yy77<<<7   ,9999%%%%7%%%%%99991,,88800777888800ee0>>",
">>8800008877yy77<<<7   ,9999999,778,99999991,00000777888800ee0>>",
">>qqqq887777<<77777q   ,9999991,77q,19999991,0888877q88eeqq008>>",
">>qqqq887777<<77777q    999999,<77q,19999999,q008877q88eeqq008>>",
">><<778800008877<<<7    999999,877<<,9999999,,00007770077ee00q>>",
">><<778800008877<<<7   .111991,877<<,19991111,88007770077ee00q>>",
">>8800qq008800qq00000<<,19919,00qq880,9911991,8888qq0<<77<<888>>",
">>8800qq008800qq00000<<,99999,00qq880,9999991,<<88qq0<<77<<888>>",
">>880000qq008800qqqqq77,99991,8800880,999999,7<<<<00q777788008>>",
">>880000qq008800qqqqq77,99991,8800880,999991,7yy<<00q777788008>>",
">>0088qq88770088eeeyyqq,99991,0088008,99991,,7yyyy88yqq0088yy0>>",
">>0088qq88770088eeeyyqqXXX991,0088008,1XXXX,00qqyy88yqq0088yy0>>",
">>00eeeeqq7777qq<<<qq00X*X11,877qq00XX1X***X00qqqqqqq00qqyy778>>",
">>00eeeeqq7777qq<<<qqXXX:XXXX877qq00XXXX:::XX0qqqqqqq00qqyy778>>",
">>qq<<77yyqqqq00777XX***XX**X0qq00qqX**XXXX**XXqqq00<qq0077880>>",
">>qq<<77yyqqqq007XX****@@r@@X0qq00qqX@r@@@****XXX000<qq0077880>>",
">>>>>>>>>>>>>>>>>X:X@@rrr@@@X>>>>>>>X@@rrr@@@X:::X>>>>>>>>>>>>>>",
">>>>>>>>>>>>>>>>>X:X@@@@@@@@X>>>>>>>X@@@@@@@@X:::X>>>>>>>>>>>>>>"
};
