/* XPM */
static char *_dd35a447d9f4b7cb4c2c59270874d066QLJ7TZOxrOKMAfe[] = {
/* columns rows colors chars-per-pixel */
"64 64 29 1 ",
"  c black",
". c #0E0C0C",
"X c #2D1B1E",
"o c #1E2415",
"O c #333C24",
"+ c #222034",
"@ c #612721",
"# c #663931",
"$ c #586335",
"% c #594D4D",
"& c #B9451D",
"* c #8F563B",
"= c #886E6A",
"- c #7F8E44",
"; c #E88A36",
": c #BD9B75",
"> c #D9A066",
", c #C6AE71",
"< c #E2B27E",
"1 c #C4C55B",
"2 c #D1BA8A",
"3 c #D5C496",
"4 c #EEC39A",
"5 c #DACFA3",
"6 c #E3DBB0",
"7 c #F6D9BD",
"8 c #E7E4BB",
"9 c #FFE0B7",
"0 c #EDEBCB",
/* pixels */
"::::::::::::::::::::::::::::::::::::::::::::::::::::::::::::::::",
"::::::::::::::::::::::::::::::::::::::::::::::::::::::::::::::::",
"::5588335533338822233885500>>>>>>>>>>8335533338822233885500225::",
"::558833553333882223388550>7477444444>335533338822233885500225::",
"::88223333888822555555533>774444444444>33388882255555553355338::",
"::8822333388882255555553>77444444444444>3388882255555553355338::",
"::6666335522,,2222266336>74444444444444>5522,,2222266336655882::",
"::6666335522,,222226633>>44444444444444>>522,,2222266336655882::",
"::226655336655665556655>>74444444444444>>36655665556655553322,::",
"::226655336655665556655>++444444444444+ >36655665556655553322,::",
"::22,,22556666553335566>4++            4>566665533355663355553::",
"::22,,22556666553335566>4>     >4     >4>566665533355663355553::",
"::8855333300665522233225>74   4>44   44>3300665522233225555335::",
"::8855333300665522233225>744444>>444444>3300665522233225555335::",
"::33555533220022,,,223333>7>44*>>*44>4>533220022,,,22333355885::",
"::33555533220022,,,223333>>>4*####*4>>>533220022,,,22333355885::",
"::6666332222,,222226633OOO>>7#4>>4#4>>oOOoO2,,2222266338866553::",
"::6666332222,,22222663O11$OO>>*##*>>ooO$$$$o,,2222266338866553::",
"::,,223355553322,,,22O1---$-OO>**>ooO$o-$$$$o322,,,22552288556::",
"::,,223355553322,,,2O1-----O--OOOOO$$o--$$$$$O22,,,22552288556::",
"::335566553355665555O-------$O$--$$O$----$$$$o6655555,,22,,333::",
"::33556655335566555O-$O-------$$OOO------$$$$o6655555,,22,,333::",
"::3355556655335566O-$$O---------$-------$$O$$o5566666222233553::",
"::3355556655335566O-$O$O--------O------$$$o$$o5566666222233553::",
"::553366332255338O1$O--$O-------O------$$oO$$O3388800665533005::",
"::553366332255338O-O----O1------$-----$$$o$$O$O388800665533005::",
"::55888866222266O-O$----$O------O-----$$OO$$O$o6,,,66556600223::",
"::55888866222266O-O----$OO------$------$oO$$O$o6,,,66556600223::",
"::66,,220066665O1O$---$O5O------$------$oO$$$$o5222,,665522335::",
"::66,,220066665O-O---$O55O------O------$o$$$$$o5222,,665522335::",
"::5588335533338O-$--$O855O1-----$------$O$$$O$$o22233885500225::",
"::558833553333O1O---O88336O-----$------$$O$$$$$o22233885500225::",
"::552233333366O-O--OO88335O-----$-------$o$$$O$o22266336655882::",
"::552233333366O-O-O$O88665O-----O-------$Oo$$O$o22266336655882::",
"::5588335533338OOO$$O8855O1-----$-------$Oo$$O$o22233885500225::",
"::5588335533338O-$-$O8855O1-----$-------$Oo$$$$o22233885500225::",
"::8822883388882O--$OO5533O1-----O-----$$OOo$$$oo55555553355338::",
"::88228833888822OOO<>553O1-----$O-$$$OOOOOo$$o$o55555553355338::",
"::6666335522,,22>>>4>336O1-----$OOOOO%%%%%Ooo$$o22266336655882::",
"::6666335522,,2>><<44>>%=O1----$O%%%%%===%Oo$$$o22266336655882::",
"::226655336655.><44444>.==O1---$O==%======%O$$$o5556655553322,::",
"::226655336655 >44444>> ===O---$O==%=======%$$o<5556655553322,::",
"::22,,22556666 >4>4>4> %====OO-$O=%========%oo<4<3355663355553::",
"::22,,22556666 ><><>4> =======OOO=%========%<<<4<3355663355553::",
"::88553333006655222><> =%%%%===%==%=======%%<<<44<233225555335::",
"::88553333006655222 >> >444%%==%%%%==%%%%%%><<<4<<553225555335::",
"::33555533220022,,,2   >4444%%%%2%%%%%4444<>><4><5222333355885::",
"::33555533220022,,,2   >4444444>223>4444444<>>>>55222333355885::",
"::6666332222,,222226   >444444<>226><444444<>>>333226338866553::",
"::6666332222,,222226    444444>,226><4444444>65533226338866553::",
"::,,223355553322,,,2    444444>322,,>4444444>>5555222552288556::",
"::,,223355553322,,,2   .<<<44<>322,,><444<<<<>3355222552288556::",
"::3355665533556655555,,><44<4>5566335>44<<44<>3333665,,22,,333::",
"::3355665533556655555,,>44444>5566335>444444<>,,33665,,22,,333::",
"::335555665533556666622>4444<>3355335>444444>2,,,,556222233553::",
"::335555665533556666622>4444<>3355335>44444<>200,,556222233553::",
"::553366332255338880066>4444<>5533553>4444<>>20000330665533005::",
"::553366332255338880066XXX44<>5533553><XXXX>556600330665533005::",
"::55888866222266,,,6655X&X<<>3226655XX<X&&&X556666666556600223::",
"::55888866222266,,,66XXX;XXXX3226655XXXX;;;XX56666666556600223::",
"::66,,2200666655222XX&&&XX&&X5665566X&&XXXX&&XX66655,665522335::",
"::66,,22006666552XX&&&&@@9@@X5665566X@9@@@&&&&XXX555,665522335::",
":::::::::::::::::X;X@@999@@@X:::::::X@@999@@@X;;;X::::::::::::::",
":::::::::::::::::X;X@@@@@@@@X:::::::X@@@@@@@@X;;;X::::::::::::::"
};
