/* XPM */
static char *_364228d96fc4552f5307f9b33f9f6e7dDRT7fJut841R7EI[] = {
/* columns rows colors chars-per-pixel */
"64 64 8 1 ",
"  c #BD9B75",
". c #C6AE71",
"X c #D1BA8A",
"o c #D5C496",
"O c #DACFA3",
"+ c #E3DBB0",
"@ c #E7E4BB",
"# c #EDEBCB",
/* pixels */
"                                                                ",
"                                                                ",
"  OO@@ooOOoooo@@XXXoo@@OO##XXOOXX+OO@@ooOOoooo@@XXXoo@@OO##XXO  ",
"  OO@@ooOOoooo@@XXXoo@@OO##XXOOXX+OO@@ooOOoooo@@XXXoo@@OO##XXO  ",
"  @@XXoooo@@@@XXOOOOOOOooOOoo@@XX.@@XXoooo@@@@XXOOOOOOOooOOoo@  ",
"  @@XXoooo@@@@XXOOOOOOOooOOoo@@XX.@@XXoooo@@@@XXOOOOOOOooOOoo@  ",
"  ++++ooOOXX..XXXXX++oo++OO@@XX@@O++++ooOOXX..XXXXX++oo++OO@@X  ",
"  ++++ooOOXX..XXXXX++oo++OO@@XX@@O++++ooOOXX..XXXXX++oo++OO@@X  ",
"  XX++OOoo++OO++OOO++OOOOooXX..ooOXX++OOoo++OO++OOO++OOOOooXX.  ",
"  XX++OOoo++OO++OOO++OOOOooXX..ooOXX++OOoo++OO++OOO++OOOOooXX.  ",
"  XX..XXOO++++OOoooOO++ooOOOOoo+++XX..XXOO++++OOoooOO++ooOOOOo  ",
"  XX..XXOO++++OOoooOO++ooOOOOoo+++XX..XXOO++++OOoooOO++ooOOOOo  ",
"  @@OOoooo##++OOXXXooXXOOOOooOO..X@@OOoooo##++OOXXXooXXOOOOooO  ",
"  @@OOoooo##++OOXXXooXXOOOOooOO..X@@OOoooo##++OOXXXooXXOOOOooO  ",
"  ooOOOOooXX##XX...XXooooOO@@OOooOooOOOOooXX##XX...XXooooOO@@O  ",
"  ooOOOOooXX##XX...XXooooOO@@OOooOooOOOOooXX##XX...XXooooOO@@O  ",
"  ++++ooXXXX..XXXXX++oo@@++OOooooO++++ooXXXX..XXXXX++oo@@++OOo  ",
"  ++++ooXXXX..XXXXX++oo@@++O@XXXXO++++ooXXXX..XXXXX++oo@@++OOo  ",
"  ..XXooOOOOooXX...XXOOXX@@O.XXXXX..XXooOOOOooXX...XXOOXX@@OO+  ",
"  ..XXooOOOOooXX...XXOOXX@@O.####X..XXooOOOOooXX...XXOOXX@@OO+  ",
"  ooOO++OOooOO++OOOOO..XXooXX####...OO++OOooOO++OOOOO..XX..ooo  ",
"  ooOO++OOooOO++OOOOO..XXXXXX..XXXXXOO++OOooOO++OOOOO..XX..ooo  ",
"  ooOOOO++OOooOO+++++XXXXXXXX..XXXXXOOOO++OOooOO+++++XXXXooOOo  ",
"  ooOOOO++OOooOO+++++XXXXOOOOooXX...OOOO++OOooOO+++++XXXXooOOo  ",
"  OOoo++ooXXOOoo@@@##++OOOOOOooXX...oo++ooXXOOoo@@@##++OOoo##O  ",
"  OOoo++ooXXOOoo@@@##++OOOOooOO++OOOoo++ooXXOOoo@@@##++OOoo##O  ",
"  OO@@@@++XXXX++...++OO++OOooOO++OOO@@@@++XXXX++...++OO++##XXo  ",
"  OO@@@@++XXXX++...++OO++++OOooOO+++@@@@++XXXX++...++OO++##XXo  ",
"  ++..XX##++++OOXXX..++OO++OOooOO+++..XX##++++OOXXX..++OOXXooO  ",
"  ++..XX##++++OOXXX..@@OOooXXOOoo@@@..XX##++++OOXXX..++OOXXooO  ",
"  OO@@ooOOoooo@@XXX..@@OOooXXOOoo...@@ooOOoooo@@XXXoo@@OO##XXO  ",
"  OO@@ooOOoooo@@XXX..@@oo++XXXX++...@@ooOOoooo@@XXXoo@@OO##XXO  ",
"  OOXXoooooo++OOXXX@@@@ooOOoO++OOO@@XXooooXX..XXXXX++oo++OO@@X  ",
"  OOXXoooooo++OOXXX@@@@++OO@@++XXX@@XXooooXX..XXXXX++oo++OO@@X  ",
"  OO@@ooOOoooo@@XXXoo@@OO##XX++XXX++++ooOOoooo@@XXXoo@@OO##XXO  ",
"  OO@@ooOOoooo@@XXXoo@@OO##XX##...OO@@ooOOoooo@@XXXoo@@OO##XXO  ",
"  @@XX@@oo@@@@XXOOOOOOOooOOoo##...@@XXoooo@@@@XXOOOOOOOooOOoo@  ",
"  @@XX@@oo@@@@XXOOOOOOOooOOoo..XXX@@XXoooo@@@@XXOOOOOOOooOOoo@  ",
"  ++++ooOOXX..XXXXX++oo++OO@@..XXX++++ooOOXX..XXXXX++oo++OO@@X  ",
"  ++++ooOOXX..XXXXX++oo++OO@@oo...++++ooOOXX..XXXXX++oo++OO@@X  ",
"  XX++OOoo++OO++OOO++OOOOooXXoo...XX++OOoo++OO++OOO++OOOOooXX.  ",
"  XX++OOoo++OO++OOO++OOOOooXXOOOOOXX++OOoo++OO++OOO++OOOOooXX.  ",
"  XX..XXOO++++OOoooOO++ooOOOOo++OOXX..XXOO++OO++oooOO++ooOOOOo  ",
"  XX..XXOO++++OOoooOO++ooOOOOo++OOXX..XXOO++++++oooOO++ooOOOOo  ",
"  @@OOoooo##++OOXXXooXXOOOOooO++OO@@OOoooo##++XOXXXooXXOOOOooO  ",
"  @@OOoooo##++OOXXXooXXOOOOooO++OO@@OOoooo##oo++XXOOoXXOOOOooO  ",
"  ooOOOOooXX##XX...XXooooOO@@O##XXooOOOOooXXooooOOXXXooooOO@@O  ",
"  ooOOOOooXX##XX...XXooooOO@@O##XXooOOOOooXXOOOOOOXXXooooOO@@O  ",
"  ++++ooXXXX..XXXXX++oo@@++OOo..XX++++ooXXXXOOooooXX+oo@@++OOo  ",
"  ++++ooXXXX..XXXXX++oo@@++OOo..XX++++ooXXXX++OOooXX+oo@@++OOo  ",
"  ..XXooOOOOooXX...XXOOXX@@OO+ooXX..XXooOOOO++OOOOXXXOOXX@@OO+  ",
"  ..XXooOOOOooXX...XXOOXX@@OO+ooXX..XXooOOOOXXooOOXXXOOXX@@OO+  ",
"  ooOO++OOooOO++OOOOO..XX..oooOO++ooOO++OOooXXoooo++O..XX..ooo  ",
"  ooOO++OOooOO++OOOOO..XX..oooOO++ooOO++OOooXX..oo++O..XX..ooo  ",
"  ooOOOO++OOooOO+++++XXXXooOOoooOOooOOOO++OOXX....OO+XXXXooOOo  ",
"  ooOOOO++OOooOO+++++XXXXooOOoooOOooOOOO++OOXX##..OO+XXXXooOOo  ",
"  OOoo++ooXXOOoo@@@##++OOoo##OOOooOOoo++ooXXXX####oo#++OOoo##O  ",
"  OOoo++ooXXOOoo@@@##++OOoo##OOOooOOoo++ooXXOO++##oo#++OOoo##O  ",
"  OO@@@@++XXXX++...++OO++##XXoXX++OO@@@@++XXOO+++++++OO++##XXo  ",
"  OO@@@@++XXXX++...++OO++##XXoXX++OO@@@@++XOOO+++++++OO++##XXo  ",
"  ++..XX##++++OOXXX..++OOXXooO++OO++..XX##+OOO++++OO.++OOXXooO  ",
"  ++..XX##++++OOXXX..++OOXXooO++OO++..XX##++++++OOOO.++OOXXooO  ",
"                                                                ",
"                                                                "
};
