/* XPM */
static char *_7d17922f1794c86fa39ec1c3d2c9f377P3ojZ86fQtLC1DZ[] = {
/* columns rows colors chars-per-pixel */
"64 64 26 1 ",
"  c #3A211C",
". c #3A3527",
"X c #2E3C3F",
"o c #45283C",
"O c #663931",
"+ c #675C3A",
"@ c #3F3F74",
"# c #475A5E",
"$ c #8F563B",
"% c #BD9B75",
"& c #C9AD59",
"* c #D9A066",
"= c #C6AE71",
"- c #E9B47F",
"; c #F6CC4D",
": c #FFEE6C",
"> c #FFFB6C",
", c #D1BA8A",
"< c #D5C496",
"1 c #EEC39A",
"2 c #DACFA3",
"3 c #E3DBB0",
"4 c #F6D9BD",
"5 c #E7E4BB",
"6 c #EDEBCB",
"7 c #CBDBFC",
/* pixels */
"%%%%%%%%%%%%%%%%%%%%%%%%%%%%%%%%%%%%%%%%%%%%%%%%%%%%%%%%%%%%%%%%",
"%%%%%%%%%%%%%%%%%%%%%%%%%%%OOOOOOOOO%%O%%%%%%%%%%%%%%%%%%%%%%%%%",
"%%2255<<22<<<<55,,,<<55226O$OO$O$$$O$$<<22<<<<55,,,<<552266,,2%%",
"%%2255<<22<<<<55,,,<<5522O$$$OO$OO$$O$$<22<<<<55,,,<<552266,,2%%",
"%%55,,<<<<5555,,2222222<OO$$$$O$$$O$OO$OO<O555,,2222222<<22<<5%%",
"%%55,,<<<<5555,,2222222<<O$OO$OO$$O$$OOOOO5555,,2222222<<22<<5%%",
"%%3333<<22,,==,,,,,33<<33OO***O$O$$O$O$$$O,,==,,,,,33<<332255,%%",
"%%3333<<22,,==,,,,,33<<33*1111*OOO$O$OOOOO,,==,,,,,33<<332255,%%",
"%%,,3322<<332233222332222-11o$4-OO$O$OO$$O332233222332222<<,,=%%",
"%%,,3322<<332233222332222-$o-11-OO*-O$O$$O332233222332222<<,,=%%",
"%%,,==,,22333322<<<2233<<-ooo$1-O*14*$OOOO333322<<<2233<<2222<%%",
"%%,,==,,22333322<<<2233<<-@77-11--11-O$OO2333322<<<2233<<2222<%%",
"%%5522<<<<663322,,,<<,,2--1111111111-$OOO<663322,,,<<,,2222<<2%%",
"%%5522<<<<663322,,,<<,,2*1111111111-*OO<<<663322,,,<<,,2222<<2%%",
"%%<<2222<<,,66,,===,,<<<*11111111--*;;;;;;,,66,,===,,<<<<22552%%",
"%%<<2222<<,,66,,===,,<<<<-111111-*;;;;;::;,,66,,===,,<<<<22552%%",
"%%3333<<,,,,==,,,,,33<<55**1114--;;::::::;,,==,,,,,33<<553322<%%",
"%%3333<<,,,,==,,,,,33<<55*-11--**;;;:::::;,,==,,,,,33<<553322<%%",
"%%==,,<<2222<<,,===,,22,,5****:;;::;:>>>>;22<<,,===,,22,,55223%%",
"%%==,,<<2222<<,,===,,22,,552;&:;::::;:;;;;22<<,,===,,22,,55223%%",
"%%<<223322<<223322222==,,<<,;&:;::::;;;;;2<<223322222==,,==<<<%%",
"%%<<223322<<223322222==,,,,,;&:;:::::;;322<<223322222==,,==<<<%%",
"%%<<22223322<<2233333,,,,,,;;&:;:::::;;23322<<2233333,,,,<<22<%%",
"%%<<22223322<<2233333,,,,22;:&:;>:::>;;23322<<2233333,,,,<<22<%%",
"%%22<<33<<,,22<<55566332222;:&>;>>>>>;;3<<,,22<<555663322<<662%%",
"%%22<<33<<,,22<<55566332222;:+>;>>>>>;;3<<,,22<<555663322<<662%%",
"%%22555533,,,,33===33223322;:.>;>>>>>;;533,,,,33===33223366,,<%%",
"%%22555533,,,,33===33223333;>.>;:>>>:;;533,,,,33===33223366,,<%%",
"%%33==,,66333322,,,==332233;>>>;:>>>:;,,66333322,,,==3322,,<<2%%",
"%%33==,,66333322,,,==5522<<;>>>;:>>>:;,,66333322,,,==3322,,<<2%%",
"%%2255<<22<<<<55,,,==5522<<;>>>;:>>>:;<<22<<<<55,,,<<552266,,2%%",
"%%2255<<22<<<<55,,,==55<<33;>>>;:>>>:;<<22<<<<55,,,<<552266,,2%%",
"%%22,,<<<<<<3322,,,5555<<22;>>>;:>>>:;<<<<,,==,,,,,33<<332255,%%",
"%%22,,<<<<<<3322,,,55553322;>>>;:>>>:;<<<<,,==,,,,,33<<332255,%%",
"%%2255<<22<<<<55,,,<<552266;>>>;:>>>:;<<22<<<<55,,,<<552266,,2%%",
"%%2255<<22<<<<55,,,<<552266;>>>;:>>>:;<<22<<<<55,,,<<552266,,2%%",
"%%55,,55<<5555,,2222222<<22;>::;>>>>>;<<<<5555,,2222222<<22<<5%%",
"%%55,,55<<5555,,2222222<<22;>::;>>>>>;<<<<5555,,2222222<<22<<5%%",
"%%3333<<22,,==,,,,,33<<3322;:::;>>>>>;<<22,,==,,,,,33<<332255,%%",
"%%3333<<22,,==,,,,,33<<3322;:::;;>>>>;<<22,,==,,,,,33<<332255,%%",
"%%,,3322<<332233222332222<<;:::*;>>>>;22<<332233222332222<<,,=%%",
"%%,,3322<<332233222332222<<;:::*-;>>;;;2<<332233222332222<<,,=%%",
"%%,,==,,22333322<<<2233<<22;:::*-;;;-*;,22332233<<<2233<<2222<%%",
"%%,,==,,22333322<<<2233<<22;::**1----*;,22333333<<<2233<<2222<%%",
"%%5522<<<<663322,,,<<,,2222;;*1*11111*;<<<6633,2,,,<<,,2222<<2%%",
"%%5522<<<<663322,,,<<,,2222;;*1*111111*<<<66<<33,,22<,,2222<<2%%",
"%%<<2222<<,,66,,===,,<<<<22;;*-*111111*2<<,,<<<<22,,,<<<<22552%%",
"%%<<2222<<,,66,,===,,<<<<22;;X**11111-*2<<,,222222,,,<<<<22552%%",
"%%3333<<,,,,==,,,,,33<<553322X#*1111-**<,,,,22<<<<,,3<<553322<%%",
"%%3333<<,,,,==,,,,,33<<553322X#*----**<<,,,,3322<<,,3<<553322<%%",
"%%==,,<<2222<<,,===,,22,,5522X##****#X<<2222332222,,,22,,55223%%",
"%%==,,<<2222<<,,===,,22,,5522X#######X<<2222,,<<22,,,22,,55223%%",
"%%<<223322<<223322222==,,==<<X######XX3322<<,,<<<<332==,,==<<<%%",
"%%<<223322<<223322222==,,==<<X######XX3322<<,,==<<332==,,==<<<%%",
"%%<<22223322<<2233333,,,,<<22X######X2223322,,====223,,,,<<22<%%",
"%%<<22223322<<2233333,,,,<<22X######X2223322,,66==223,,,,<<22<%%",
"%%22<<33<<,,22<<555663322<<66X#####XX<33<<,,,,6666<<63322<<662%%",
"%%22<<33<<,,22<<555663322<<66X#####X<<33<<,,223366<<63322<<662%%",
"%%22555533,,,,33===33223366,,X#####X555533,,223333333223366,,<%%",
"%%22555533,,,,33===33223366,,       555533,2223333333223366,,<%%",
"%%33==,,66333322,,,==3322,,<<        =,,663222333322=3322,,<<2%%",
"%%33==,,66333322,,,==3322,,          =,,663333332222=3322,,<<2%%",
"%%%%%%%%%%%%%%%%%%%%%%%%%            %%%%%%%%%%%%%%%%%%%%%%%%%%%",
"%%%%%%%%%%%%%%%%%%%%%%%%%            %%%%%%%%%%%%%%%%%%%%%%%%%%%"
};
