/* XPM */
static char *result[] = {
/* columns rows colors chars-per-pixel */
"64 64 22 1 ",
"  c #3A211C",
". c #2E3C3F",
"X c #663931",
"o c #1E3D43",
"O c #395459",
"+ c #475A5E",
"@ c #8F563B",
"# c #BD9B75",
"$ c #D9A066",
"% c #C6AE71",
"& c #E9B47F",
"* c #F6CC4D",
"= c #FFE06C",
"- c #FFEE6C",
"; c #FFFB6C",
": c #D1BA8A",
"> c #D5C496",
", c #EEC39A",
"< c #DACFA3",
"1 c #E3DBB0",
"2 c #E7E4BB",
"3 c #EDEBCB",
/* pixels */
"################################################################",
"#########################XXXXXXXXXXXX###########################",
"##<<22>><<>>>>22:::>>22<X@@@@@@@@@@X@X>>X<>>>>22:::>>22<<33::<##",
"##<<22>><<>>>>22:::>>22X@@X@X@@@XXX@@@XX<<>>>>22:::>>22<<33::<##",
"##22::>>>>2222::<<<<<<<XX@X@@XX@@@@X@XX>>>2222::<<<<<<<>><<>>2##",
"##22::>>>>2222::<<<<<<X@@XX@@@@X@@@@@@@X>>2222::<<<<<<<>><<>>2##",
"##1111>><<::%%:::::11>>X@@@XX@@X@@@X@XXXX<::%%:::::11>>11<<22:##",
"##1111>><<::%%:::::11>XXXXXX@XXX@X@X@X@X<<::%%:::::11>>11<<22:##",
"##::11<<>>11<<11<<<11<@@@@X@@X@@X@XX@@@X>>11<<11<<<11<<<<>>::%##",
"##::11<<>>11<<11<<<11<$XX@@@X@X@@X@@XX@$>>11<<11<<<11<<<<>>::%##",
"##::%%::<<1111<<>>><<1$@X@@X@@@X@@XX@XX$<<1111<<>>><<11>><<<<>##",
"##::%%::<<1111<<>>><<1$,@X@@XX@X@X@X@@,$<<1111<<>>><<11>><<<<>##",
"##22<<>>>>3311<<:::>>:$$@XX@@X@XX@@@XX$$>>3311<<:::>>::<<<<>><##",
"##22<<>>>>3311<<:::>>::$,@X*********@,$>>>3311<<:::>>::<<<<>><##",
"##>><<<<>>::33::%%%::>******-;;;;--*****>>::33::%%%::>>>><<22<##",
"##>><<<<>>::33::%%%::*;;;;;;;;;-------***>::33::%%%::>>>><<22<##",
"##1111>>::::%%:::::11*;;;;;;------------*:::%%:::::11>>2211<<>##",
"##1111>>::::%%:::::1***-;;;------------**=::%%:::::11>>2211<<>##",
"##%%::>><<<<>>::%%=*---**=-;;;;;-----**---=*>>::%%%::<<::22<<1##",
"##%%::>><<<<>>::%**-;-----=*********----;;-=*>::%%%::<<::22<<1##",
"##>><<11<<>><<11<*-;;;;;-------------;;;;;;-*<11<<<<<%%::%%>>>##",
"##>><<11<<>><<11<*;;;;;;;;----------;;;;;;;;=<11<<<<<%%::%%>>>##",
"##>><<<<11<<>><<1*;;;-;;;;;;;;;;;;;;;;;;-;;;=><<11111::::>><<>##",
"##>><<<<11<<>><<*-;;-*;;;;;;;;;;;;;;;;;;*-;;-*<<11111::::>><<>##",
"##<<>>11>>::<<>>*;;;-*;;;;;;;;;;;;;;;;;;*-;;;*>>2223311<<>>33<##",
"##<<>>11>>::<<>>*;;;-*;;;;;;;;;;;;;;;;;;*-;;;*>>2223311<<>>33<##",
"##<<222211::::11*;;;-*;;;;;;;;;;;;;;;;;;*-;;;*11%%%11<<1133::>##",
"##<<222211::::11*;;;-*;;;;;;;;;;;;;;;;;;*-;;;=11%%%11<<1133::>##",
"##11%%::331111<<*;;;-=-;;;;;;;;;;;;;;;;-=-;;;*<<:::%%11<<::>><##",
"##11%%::331111<<*;;;;-=;;;;;;;;;;;;;;;;=--;;;*<<:::%%11<<::>><##",
"##<<22>><<>>>>22=;;;;-*;;;;;;;;;;;;;;;;*-;;;;*22:::>>22<<33::<##",
"##<<22>><<>>>>22=;;;;;*;;;;;;;;;;;;;;;;*-;;;;*22:::>>22<<33::<##",
"##<<::>>>>>>11<<=;;;;;*;;;;;;;;;;;;;;;;*-;;;;*:::::11>>11<<22:##",
"##<<::>>>>>>11<<=;;;;;*;;;;;;;;;;;;;;;;*-;;;;*:::::11>>11<<22:##",
"##<<22>><<>>>>22=;;;;;*;;;;;;;;;;;;;;;;*;;;;;*22:::>>22<<33::<##",
"##<<22>><<>>>>22=;;;;;*;;;;;;;;;;;;;;;;*;;;;;*22:::>>22<<33::<##",
"##22::22>>2222::=;;;;-*;;;;;---;;;;;;;;*;;;;;*::<<<<<<<>><<>>2##",
"##22::22>>2222::=;;;;-*;;;;--------;;;;*-;;;;*::<<<<<<<>><<>>2##",
"##1111>><<::%%::**;;;-*;-------------;;*-;;;*=:::::11>>11<<22:##",
"##1111>><<::%%::*;**;-*;-------------;;*-;**;*:::::11>>11<<22:##",
"##::11<<>>11<<11*;;;-=*;-------------;;*=-;;;*11<<<11<<<<>>::%##",
"##::11<<>>11<<11=;---*--;;;----------;--*---;*11<<<11<<<<>>::%##",
"##::%%::<<1111<<=*=--=**--;;----------**=--=*=11>>><<11>><<<<>##",
"##::%%::<<1111<<&,**=-oO**----------**Oo-=**&$11>>><<11>><<<<>##",
"##22<<>>>>3311<$$,,,=*.OO+**********+OO.*=,,&$$<:::>>::<<<<>><##",
"##22<<>>>>3311$$,,,,,&.O++++++++++++++O.&,,,,&$$::<<>::<<<<>><##",
"##>><<<<>>::33$&,,,,,$.O++++++++++++++O.,,,,,,&$<<:::>>>><<22<##",
"##>><<<<>>::33$$&,,,,,.O+++++O..++++++O.,,,,,,$$<<:::>>>><<22<##",
"##1111>>::::%%:$$&,,,,.O++++O.%%.O++++O.,,,,&$$>>>::1>>2211<<>##",
"##1111>>::::%%::$$&,,$.O++++O.%%.O++++O.$,,,$$<<>>::1>>2211<<>##",
"##%%::>><<<<>>::%$$$$<.O++++O.>>.O++++O.<$$$$1<<<<:::<<::22<<1##",
"##%%::>><<<<>>::%%%::<o+++++O.>>.O++++Oo<<<<::>><<:::<<::22<<1##",
"##>><<11<<>><<11<<<<<oO+++++O.<<.O+++++Oo<>>::>>>>11<%%::%%>>>##",
"##>><<11<<>><<11<<<<<o+++++++o<<o+++++++o<>>::%%>>11<%%::%%>>>##",
"##>><<<<11<<>><<11111.O++++Oo>>><oO++++O.1<<::%%%%<<1::::>><<>##",
"##>><<<<11<<>><<11111.O++++O.>>><.O++++O.1<<::33%%<<1::::>><<>##",
"##<<>>11>>::<<>>22233.O++++O.<<<>.O++++O.>::::3333>>311<<>>33<##",
"##<<>>11>>::<<>>22233.OOOOOO.<<<>.OOOOOO.>::<<1133>>311<<>>33<##",
"##<<222211::::11%%%11OOOOOOO.>::1.OOOOOOO1::<<1111111<<1133::>##",
"##<<222211::::11%%%11OOOOOOO:>::11OOOOOOO1:<<<1111111<<1133::>##",
"##11%%::331111<<:::%% OOOOO ><11<< OOOOO 31<<<1111<<%11<<::>><##",
"##11%%::331111<<:::%        ><11<<        111111<<<<%11<<::>><##",
"####################         ####         ######################",
"####################         ####         ######################"
};
