/* XPM */
static char *result[] = {
/* columns rows colors chars-per-pixel */
"64 64 22 1 ",
"  c #3A211C",
". c #2E3C3F",
"X c #663931",
"o c #1E3D43",
"O c #395459",
"+ c #475A5E",
"@ c #8F563B",
"# c #BD9B75",
"$ c #D9A066",
"% c #C6AE71",
"& c #E9B47F",
"* c #F6CC4D",
"= c #FFE06C",
"- c #FFEE6C",
"; c #FFFB6C",
": c #D1BA8A",
"> c #D5C496",
", c #EEC39A",
"< c #DACFA3",
"1 c #E3DBB0",
"2 c #E7E4BB",
"3 c #EDEBCB",
/* pixels */
"###########################XXXXXXXXXXXX#########################",
"##########################X@@@@@@@@@@X@X##X#####################",
"##<<22>><<>>>>22:::>>22<<X@@X@X@@@XXX@@@XX>>>>22:::>>22<<33::<##",
"##<<22>><<>>>>22:::>>22<<XX@X@@XX@@@@X@XX<>>>>22:::>>22<<33::<##",
"##22::>>>>2222::<<<<<<<>X@@XX@@@@X@@@@@@@X2222::<<<<<<<>><<>>2##",
"##22::>>>>2222::<<<<<<<>>X@@@XX@@X@@@X@XXXX222::<<<<<<<>><<>>2##",
"##1111>><<::%%:::::11>>1XXXXXX@XXX@X@X@X@X::%%:::::11>>11<<22:##",
"##1111>><<::%%:::::11>>1@@@@X@@X@@X@XX@@@X::%%:::::11>>11<<22:##",
"##::11<<>>11<<11<<<11<<<$XX@@@X@X@@X@@XX@$11<<11<<<11<<<<>>::%##",
"##::11<<>>11<<11<<<11<<<$@X@@X@@@X@@XX@XX$11<<11<<<11<<<<>>::%##",
"##::%%::<<1111<<>>><<11>$,@X@@XX@X@X@X@@,$1111<<>>><<11>><<<<>##",
"##::%%::<<1111<<>>><<11>$$@XX@@X@XX@@@XX$$1111<<>>><<11>><<<<>##",
"##22<<>>>>3311<<:::>>::<<$,@X*********@,$>3311<<:::>>::<<<<>><##",
"##22<<>>>>3311<<:::>>::<******-;;;;--*****3311<<:::>>::<<<<>><##",
"##>><<<<>>::33::%%%::>>*;;;;;;;;;-------***:33::%%%::>>>><<22<##",
"##>><<<<>>::33::%%%::>1*;;;;;;------------*:33::%%%::>>>><<22<##",
"##1111>>::::%%:::::11>***-;;;------------**=%%:::::11>>2211<<>##",
"##1111>>::::%%:::::1=*---**=-;;;;;-----**---=*:::::11>>2211<<>##",
"##%%::>><<<<>>::%%%**-;-----=*********----;;-=*:%%%::<<::22<<1##",
"##%%::>><<<<>>::%%%*-;;;;;-------------;;;;;;-*:%%%::<<::22<<1##",
"##>><<11<<>><<11<<<*;;;;;;;;----------;;;;;;;;=1<<<<<%%::%%>>>##",
"##>><<11<<>><<11<<<*;;;-;;;;;;;;;;;;;;;;;;-;;;=1<<<<<%%::%%>>>##",
"##>><<<<11<<>><<11*-;;-*;;;;;;;;;;;;;;;;;;*-;;-*11111::::>><<>##",
"##>><<<<11<<>><<11*;;;-*;;;;;;;;;;;;;;;;;;*-;;;*11111::::>><<>##",
"##<<>>11>>::<<>>22*;;;-*;;;;;;;;;;;;;;;;;;*-;;;*2223311<<>>33<##",
"##<<>>11>>::<<>>22*;;;-*;;;;;;;;;;;;;;;;;;*-;;;*2223311<<>>33<##",
"##<<222211::::11%%*;;;-*;;;;;;;;;;;;;;;;;;*-;;;=%%%11<<1133::>##",
"##<<222211::::11%%*;;;-=-;;;;;;;;;;;;;;;;-=-;;;*%%%11<<1133::>##",
"##11%%::331111<<::*;;;;-=;;;;;;;;;;;;;;;;=--;;;*:::%%11<<::>><##",
"##11%%::331111<<::=;;;;-*;;;;;;;;;;;;;;;;*-;;;;*:::%%11<<::>><##",
"##<<22>><<>>>>22::=;;;;;*;;;;;;;;;;;;;;;;*-;;;;*:::>>22<<33::<##",
"##<<22>><<>>>>22::=;;;;;*;;;;;;;;;;;;;;;;*-;;;;*:::>>22<<33::<##",
"##<<::>>>>>>11<<::=;;;;;*;;;;;;;;;;;;;;;;*-;;;;*:::11>>11<<22:##",
"##<<::>>>>>>11<<::=;;;;;*;;;;;;;;;;;;;;;;*;;;;;*:::11>>11<<22:##",
"##<<22>><<>>>>22::=;;;;;*;;;;;;;;;;;;;;;;*;;;;;*:::>>22<<33::<##",
"##<<22>><<>>>>22::=;;;;-*;;;;;---;;;;;;;;*;;;;;*:::>>22<<33::<##",
"##22::22>>2222::<<=;;;;-*;;;;--------;;;;*-;;;;*<<<<<<<>><<>>2##",
"##22::22>>2222::<<**;;;-*;-------------;;*-;;;*=<<<<<<<>><<>>2##",
"##1111>><<::%%::::*;**;-*;-------------;;*-;**;*:::11>>11<<22:##",
"##1111>><<::%%::::*;;;-=*;-------------;;*=-;;;*:::11>>11<<22:##",
"##::11<<>>11<<11<<=;---*--;;;----------;--*---;*<<<11<<<<>>::%##",
"##::11<<>>11<<11<<=*=--=**--;;----------**=--=*=<<<11<<<<>>::%##",
"##::%%::<<1111<<>>&,**=-oO**----------**Oo-=**&$>>><<11>><<<<>##",
"##::%%::<<1111<<>$$,,,=*.OO+**********+OO.*=,,&$$>><<11>><<<<>##",
"##22<<>>>>3311<<$$,,,,,&.O++++++++++++++O.&,,,,&$$:>>::<<<<>><##",
"##22<<>>>>3311<<$&,,,,,$.O++++++++++++++O.,,,,,,&$<<>::<<<<>><##",
"##>><<<<>>::33::$$&,,,,,.O++++++++++++++O.,,,,,,$$:::>>>><<22<##",
"##>><<<<>>::33::%$$&,,,,.O+++++O..O+++++O.,,,,&$$<:::>>>><<22<##",
"##1111>>::::%%::::$$&,,$.O++++O.::.O++++O.$,,,$$>>::1>>2211<<>##",
"##1111>>::::%%:::::$$$$2.O++++O.::.O++++O.:$$$$<>>::1>>2211<<>##",
"##%%::>><<<<>>::%%%::<<:.O++++O.::.O++++O.<<11<<<<:::<<::22<<1##",
"##%%::>><<<<>>::%%%::<<:o+++++O.::.O++++Oo<<::>><<:::<<::22<<1##",
"##>><<11<<>><<11<<<<<%%oO+++++O.11.O+++++Oo>::>>>>11<%%::%%>>>##",
"##>><<11<<>><<11<<<<<%%o+++++++o11o+++++++o>::%%>>11<%%::%%>>>##",
"##>><<<<11<<>><<11111::.O++++Oo><<>oO++++O.<::%%%%<<1::::>><<>##",
"##>><<<<11<<>><<11111::.O++++O.><<>.O++++O.<::33%%<<1::::>><<>##",
"##<<>>11>>::<<>>2223311.O++++O.<>><.O++++O.:::3333>>311<<>>33<##",
"##<<>>11>>::<<>>2223311.OOO++O.<>><.O++OOO.:<<1133>>311<<>>33<##",
"##<<222211::::11%%%11<<oOOOOOO.:11<.OOOOOOo:<<1111111<<1133::>##",
"##<<222211::::11%%%11<<oO   Oo::11<<oO   Oo<<<1111111<<1133::>##",
"##11%%::331111<<:::%%11       11<<11       <<<1111<<%11<<::>><##",
"##11%%::331111<<:::%%1        11<<11        1111<<<<%11<<::>><##",
"######################         ####         ####################",
"######################         ####         ####################"
};
