/* XPM */
static char *e5ef0c98fb3f40f3a0f80e67709931bfLXCHh0eqB7b8jAfL[] = {
/* columns rows colors chars-per-pixel */
"64 64 26 1 ",
"  c #3A211C",
". c #3A3527",
"X c #2E3C3F",
"o c #45283C",
"O c #663931",
"+ c #675C3A",
"@ c #3F3F74",
"# c #475A5E",
"$ c #8F563B",
"% c #BD9B75",
"& c #C9AD59",
"* c #D9A066",
"= c #C6AE71",
"- c #E9B47F",
"; c #F6CC4D",
": c #FFEE6C",
"> c #FFFB6C",
", c #D1BA8A",
"< c #D5C496",
"1 c #EEC39A",
"2 c #DACFA3",
"3 c #E3DBB0",
"4 c #F6D9BD",
"5 c #E7E4BB",
"6 c #EDEBCB",
"7 c #CBDBFC",
/* pixels */
"%%%%%%%%%%%%%%%%%%%%%%%%%%%%%%%%%%%%%%%%%%%%%%%%%%%%%%%%%%%%%%%%",
"%%%%%%%%%%%%%%%%%%%%%%%%%O%%OOOOOOOOO%%%%%%%%%%%%%%%%%%%%%%%%%%%",
"%%2255<<22<<<<55,,,<<55226$$O$$$O$OO$O<<22<<<<55,,,<<552266,,2%%",
"%%2255<<22<<<<55,,,<<5522$$O$$OO$OO$$$O<22<<<<55,,,<<552266,,2%%",
"%%55,,<<<<5555,,222222O<O$OO$O$$$O$$$$OO<<5555,,2222222<<22<<5%%",
"%%55,,<<<<5555,,2222222OOOO$$O$$OO$OO$O<<<5555,,2222222<<22<<5%%",
"%%3333<<22,,==,,,,,33<<O$$O$O$$O$O***OO<22,,==,,,,,33<<332255,%%",
"%%3333<<22,,==,,,,,33<<OOOO$O$OOO*1111*<22,,==,,,,,33<<332255,%%",
"%%,,3322<<3322332223322O$OO$O$OO-4$o11-2<<332233222332222<<,,=%%",
"%%,,3322<<3322332223322O$O$O-*OO-11-o$-2<<332233222332222<<,,=%%",
"%%,,==,,22333322<<<2233OOO$*41*O-1$ooo-,22333322<<<2233<<2222<%%",
"%%,,==,,22333322<<<2233<O$O-11--11-77@-,22333322<<<2233<<2222<%%",
"%%5522<<<<663322,,,<<,,2OO$-1111111111--<<663322,,,<<,,2222<<2%%",
"%%5522<<<<663322,,,<<,,22OO*-1111111111*<<663322,,,<<,,2222<<2%%",
"%%<<2222<<,,66,,===,,<<;;;;;*--11111111*<<,,66,,===,,<<<<22552%%",
"%%<<2222<<,,66,,===,,<<;:;;;;;*-111111-2<<,,66,,===,,<<<<22552%%",
"%%3333<<,,,,==,,,,,33<<;:::::;;--4111**<,,,,==,,,,,33<<553322<%%",
"%%3333<<,,,,==,,,,,33<<;::::;;;**--11-*<,,,,==,,,,,33<<553322<%%",
"%%==,,<<2222<<,,===,,22;>>>:;::;;:****<<2222<<,,===,,22,,55223%%",
"%%==,,<<2222<<,,===,,22;;;:;::::;:&;,,<<2222<<,,===,,22,,55223%%",
"%%<<223322<<223322222==,;;;;::::;:&;223322<<223322222==,,==<<<%%",
"%%<<223322<<223322222==,,;;:::::;:&;223322<<223322222==,,==<<<%%",
"%%<<22223322<<2233333,,,,;;:::::;:&;;2223322<<2233333,,,,<<22<%%",
"%%<<22223322<<2233333,,,,;;>:::>;:&:;2223322<<2233333,,,,<<22<%%",
"%%22<<33<<,,22<<555663322;;>>>>>;>&:;<33<<,,22<<555663322<<662%%",
"%%22<<33<<,,22<<555663322;;>>>>>;>+:;<33<<,,22<<555663322<<662%%",
"%%22555533,,,,33===332233;;>>>>>;>.:;55533,,,,33===33223366,,<%%",
"%%22555533,,,,33===332233;;:>>>:;>.>;55533,,,,33===33223366,,<%%",
"%%33==,,66333322,,,==33223;:>>>:;>>>;=,,66333322,,,==3322,,<<2%%",
"%%33==,,66333322,,,==5522<;:>>>:;>>>;=,,66333322,,,==3322,,<<2%%",
"%%2255<<22<<<<55,,,==5522<;:>>>:;>>>;5<<22<<<<55,,,<<552266,,2%%",
"%%2255<<22<<<<55,,,==55<<3;:>>>:;>>>;5<<22<<<<55,,,<<552266,,2%%",
"%%22,,<<<<<<3322,,,5555<<2;:>>>:;>>>;,<<<<,,==,,,,,33<<332255,%%",
"%%22,,<<<<<<3322,,,5555332;:>>>:;>>>;,<<<<,,==,,,,,33<<332255,%%",
"%%2255<<22<<<<55,,,<<55226;:>>>:;>>>;3<<22<<<<55,,,<<552266,,2%%",
"%%2255<<22<<<<55,,,<<55226;:>>>:;>>>;5<<22<<<<55,,,<<552266,,2%%",
"%%55,,55<<5555,,2222222<<2;>>>>>;::>;,<<<<5555,,2222222<<22<<5%%",
"%%55,,55<<5555,,2222222<<2;>>>>>;::>;,<<<<5555,,2222222<<22<<5%%",
"%%3333<<22,,==,,,,,33<<332;>>>>>;:::;3<<22,,==,,,,,33<<332255,%%",
"%%3333<<22,,==,,,,,33<<332;>>>>;;:::;3<<22,,==,,,,,33<<332255,%%",
"%%,,3322<<332233222332222<;>>>>;*:::;322<<332233222332222<<,,=%%",
"%%,,3322<<332233222332222;;;>>;-*:::;322<<332233222332222<<,,=%%",
"%%,,==,,22333322<<<2233<<;*-;;;-*:::;=,,22332233<<<2233<<2222<%%",
"%%,,==,,22333322<<<2233<<;*----1**::;=,,22333333<<<2233<<2222<%%",
"%%5522<<<<663322,,,<<,,22;*11111*1*;;2<<<<6633,2,,,<<,,2222<<2%%",
"%%5522<<<<663322,,,<<,,22*111111*1*;;2<<<<66<<33,,22<,,2222<<2%%",
"%%<<2222<<,,66,,===,,<<<<*111111*-*;;222<<,,<<<<22,,,<<<<22552%%",
"%%<<2222<<,,66,,===,,<<<<*-11111**X;;222<<,,222222,,,<<<<22552%%",
"%%3333<<,,,,==,,,,,33<<55**-1111*#X333<<,,,,22<<<<,,3<<553322<%%",
"%%3333<<,,,,==,,,,,33<<553**----*#X333<<,,,,3322<<,,3<<553322<%%",
"%%==,,<<2222<<,,===,,22,,5X#****##X=,,<<2222332222,,,22,,55223%%",
"%%==,,<<2222<<,,===,,22,,5X#######X=,,<<2222,,<<22,,,22,,55223%%",
"%%<<223322<<223322222==,,=XX######X<223322<<,,<<<<332==,,==<<<%%",
"%%<<223322<<223322222==,,=XX######X<223322<<,,==<<332==,,==<<<%%",
"%%<<22223322<<2233333,,,,<<X######X<22223322,,====223,,,,<<22<%%",
"%%<<22223322<<2233333,,,,<<X######X<22223322,,66==223,,,,<<22<%%",
"%%22<<33<<,,22<<555663322<<XX#####X2<<33<<,,,,6666<<63322<<662%%",
"%%22<<33<<,,22<<555663322<<6X#####X2<<33<<,,223366<<63322<<662%%",
"%%22555533,,,,33===33223366,X#####X2555533,,223333333223366,,<%%",
"%%22555533,,,,33===33223366,       2555533,2223333333223366,,<%%",
"%%33==,,66333322,,,==3322,,        3==,,663222333322=3322,,<<2%%",
"%%33==,,66333322,,,==3322,,          =,,663333332222=3322,,<<2%%",
"%%%%%%%%%%%%%%%%%%%%%%%%%%%            %%%%%%%%%%%%%%%%%%%%%%%%%",
"%%%%%%%%%%%%%%%%%%%%%%%%%%%            %%%%%%%%%%%%%%%%%%%%%%%%%"
};
