/* XPM */
static char *_897c4e3b528472f98fa08e35efeeaa2qWJ8NHirSOJyooGL[] = {
/* columns rows colors chars-per-pixel */
"64 64 147 2 ",
"   c None",
".  c #010101",
"X  c #060807",
"o  c #060B09",
"O  c #0A0B0B",
"+  c #0A110E",
"@  c #0F0F10",
"#  c #0E1411",
"$  c #0F1A15",
"%  c #121314",
"&  c #111A15",
"*  c #171718",
"=  c #151B19",
"-  c #1A1B1C",
";  c #15231D",
":  c #19251E",
">  c #1B291E",
",  c #1D1F20",
"<  c #172720",
"1  c #1E2222",
"2  c #1C2D26",
"3  c #1D3129",
"4  c #222425",
"5  c #202D23",
"6  c #262729",
"7  c #262A2B",
"8  c #2A2C2D",
"9  c #203225",
"0  c #23362B",
"q  c #253A2C",
"w  c #283D2D",
"e  c #2D2F31",
"r  c #2E3233",
"t  c #233B31",
"y  c #2B3C36",
"u  c #323435",
"i  c #313837",
"p  c #343638",
"a  c #353A3B",
"s  c #3A3B3D",
"d  c #2B4535",
"f  c #2E4937",
"g  c #2C433B",
"h  c #32443B",
"j  c #334C3A",
"k  c #34513D",
"l  c #39573F",
"z  c #3C3F41",
"x  c #354641",
"c  c #3E4244",
"v  c #334941",
"b  c #3B4B46",
"n  c #3C4C48",
"m  c #385740",
"M  c #3B5A42",
"N  c #3F5A49",
"B  c #414346",
"V  c #434649",
"C  c #444A4C",
"Z  c #484B4E",
"A  c #455C4D",
"S  c #474F51",
"D  c #4B4E51",
"F  c #475051",
"G  c #4C5254",
"H  c #495850",
"J  c #4E5759",
"K  c #505357",
"L  c #52565A",
"P  c #555B5E",
"I  c #585C5F",
"U  c #476450",
"Y  c #4A6853",
"T  c #4C605C",
"R  c #4E6958",
"E  c #516159",
"W  c #555E60",
"Q  c #595E61",
"!  c #5E6266",
"~  c #5D6568",
"^  c #5E686A",
"/  c #5D716C",
"(  c #606569",
")  c #636B6E",
"_  c #61776D",
"`  c #656E71",
"'  c #657373",
"]  c #6A7276",
"[  c #637970",
"{  c #697C76",
"}  c #6C7578",
"|  c #6E7B7C",
" . c #717C7E",
".. c #688375",
"X. c #70847F",
"o. c #737D81",
"O. c #747D80",
"+. c #757E81",
"@. c #757F83",
"#. c #747E81",
"$. c #778184",
"%. c #758285",
"&. c #758285",
"*. c #728C81",
"=. c #798588",
"-. c #7B8588",
";. c #798688",
":. c #7B8689",
">. c #7B878A",
",. c #7D8E8E",
"<. c #7D8B8D",
"1. c #808D90",
"2. c #808E91",
"3. c #808F92",
"4. c #839194",
"5. c #839195",
"6. c #859497",
"7. c #869497",
"8. c #879497",
"9. c #839294",
"0. c #869598",
"q. c #869598",
"w. c #889799",
"e. c #89989B",
"r. c #8A989A",
"t. c #8A999B",
"y. c #8C9C9F",
"u. c #8C9D9F",
"i. c #899C9C",
"p. c #8D9DA0",
"a. c #8FA0A2",
"s. c #92A2A4",
"d. c #94A5A7",
"f. c #90A2A3",
"g. c #95A7A9",
"h. c #97A9AB",
"j. c #9CAFB1",
"k. c #9EB1B2",
"l. c #9FB2B4",
"z. c #9EB2B3",
"x. c #A2B6B8",
"c. c #A7BCBD",
"v. c #A5BABB",
"b. c #A9BEBF",
"n. c #A8BEBE",
"m. c #AABFC0",
"M. c #ACC2C3",
/* pixels */
"                                                                                                                                ",
"                                                                                                                                ",
"                                                                                                                                ",
"                                                . . . . . . . . . . .                                                           ",
"                                              O c J J J J J J J J J a .                                                         ",
"                                            % 1 ` y.y.y.y.y.y.y.y.y.W %                                                         ",
"                                          . z ] y.x.x.x.x.x.x.x.x.x.-.C 4 .                                                     ",
"                                          . C e.l.M.M.M.M.M.M.M.M.M.e.! 6 .                                                     ",
"                                          . C e.l.M.M.M.M.M.M.M.M.M.e.! 6 .                                                     ",
"                                          . C e.l.M.M.M.M.M.c.s.7.7.O.! 6 .                                                     ",
"                                          . C 0.j.m.m.b.c.c.k.O.! ! ! Q 6 .                                                     ",
"                                          . a  .7.d.d.e.-.-.$.` I D C C - .                                                     ",
"                                          . r ( o.-.| ~ D P ! Q G z s s * .                                                     ",
"                                          . r ( ) P 8 - % z Q Z c s s s * .                                                     ",
"                                          . - z z e O . . e G B s s s s * .                                                     ",
"                            . . . . .     . . . . . . . . 4 s s s s s s * .                                                     ",
"                            . 1 S 1 .     . . . . . . % u a s s s s s s * .                                                     ",
"                            . a $.i .     . . O O O O e ! G z s s s s s * .                                                     ",
"                            . % 8 2 ; O . . 4 V V V V G ! Q K B s s s s * .                                                     ",
"                            . . . $ ; # o . a ] ] ] ] ) ! Q K B s s u 7 % .                                                     ",
"                              . . X + < ; X c 2.2.2.2.o.( G c s s s 6 O                                                         ",
"                              - 8 8 7 : = $ r J ` O.O.` K V s s u 6 * .                                                         ",
"                            . 8 ! ! G - # 3 = . z ! ! G s s s s 7 O .                                                           ",
"                            . 8 ! L B 8 - & o . - 7 7 4 - - - - 4 p 7 .                                                         ",
"                            . 7 I C s a 6 . O = = = % % % % % % 7 P c = %                                                       ",
"                            . - B z a y < X i ' ' ^ G Z Z Z Z Z G ! ) ` r .                                                     ",
"                            . % 7 s B y < X C 0.0.2. .} } ) ! ! ! ! ' { r .                                                     ",
"                                . s L h < X C 0.0.7.5.5.5.| ! ! ! ! E N : .                                                     ",
"                                . 7 n y 3 = r F | ,.{ _ _ { ] C s H A l ; .                                                     ",
"                                . ; 0 q t t = O P X.U M m [ $.7 & j M l : .                                                     ",
"                                  + & 3 t t = X j R N k d / $.7 & j M M d 9 +                                                   ",
"                                    o ; 2 2 # . q M M j t T ' 8 = w j M Y A = .                                                 ",
"                                      o o o X . q M M j t g v i 6 % 9 M *.,.7 .                                                 ",
"                                        . . . . > q f d t t t a 8 O y ..i.4.7 .                                                 ",
"                                                . + 3 t t t t i 8 O G b.g.| 6 .                                                 ",
"                                                . O 2 t t t t i 8 O C h.p.| 4 . .                                               ",
"                                                . O 0 y t y y r 8 * Z 0.2.' 1 O % %                                             ",
"                                                . % c n t b Z 6 7 W  .9.` V % 8  .F .                                           ",
"                                                . % V F x G L - 7 $.<.| J r O s g.] u 6                                         ",
"                                                . O u Z P ! L - 7 $.] V c r O u 2.f.i.s .                                       ",
"                                                . o - u G G V = , W L s s r O 8 } w.g.' C -                                     ",
"                                                . . . * a s u % % u s s s r % 6 Q o.w.k.9.6 .                                   ",
"                                              . > 9 ; = = * - 5 5 - * * * 6 C ^ O. . .w.i. .G .                                 ",
"                                            O # h N d ; . . o 0 0 % O O . % P $.9.$.] >.a.v.' .                                 ",
"                                          . - u ~ [ v ; . .   + = 7 8 8 % . - C ,.4.<.9.a.v.' .                                 ",
"                                          . 8 P } ) y & .     . - D Z s * . . 7 P | 0.0.a.v.' .                                 ",
"                                          . c <.} G % X       . 7 | ) s * .     O F 0.0.a.v.' .                                 ",
"                                        - e L  .Q s @ .       . % c Z D Z c - .   r C C F P i .                                 ",
"                                      . 1 L ! Q C 8 O .       . . . 8 ( O.} 1 .     . . . . . .                                 ",
"                                      . = B C C c 8 O .         . . 8 ! ` Q - .                                                 ",
"                                      . O 7 8 8 8 4 O .           . 7 P P C % .                                                 ",
"                                      . X O O O O O . .           . - B B p # .                                                 ",
"                                        . . . . . . .             . % 4 4 - O .                                                 ",
"                                                                  . . . . . . .                                                 ",
"                                                                                                                                ",
"                                                                                                                                ",
"                                                                                                                                ",
"                                                                                                                                ",
"                                                                                                                                ",
"                                                                                                                                ",
"                                                                                                                                ",
"                                                                                                                                ",
"                                                                                                                                ",
"                                                                                                                                "
};
