/* XPM */
static char *c67f934f85f043288f8aca0d2d6010c73wKSSSbDCKPztN9q[] = {
/* columns rows colors chars-per-pixel */
"64 64 8 1 ",
"  c None",
". c black",
"X c #869598",
"o c #ACC2C3",
"O c #5F6367",
"+ c #3A3B3D",
"@ c #223A30",
"# c #3A5941",
/* pixels */
"                                                                ",
"                                                                ",
"                                                                ",
"                                                                ",
"                                                                ",
"                                                                ",
"                                                                ",
"                                                                ",
"                                                                ",
"                           ...........                          ",
"                          .XXXXXXXXXXX.                         ",
"                          .XXXXXXXXXXX.                         ",
"                        ..XoooooooooooO..                       ",
"                        ..XoooooooooooO..                       ",
"                        ..XoooooooooooO..                       ",
"                        ..XoooooooooooO..                       ",
"                        ..XoooooooOOOOO..                       ",
"                        ..OXXXXOOOOO+++..                       ",
"                        ..OXXXXOOOOO+++..                       ",
"                        ..OOO...OO+++++..                       ",
"                        ..OOO...OO+++++..                       ",
"                 .....  ........+++++++..                       ",
"                 ..X..  .......O+++++++..                       ",
"                 ..X..  .......O+++++++..                       ",
"                 ...@@....OOOOOOOO+++++..                       ",
"                 ...@@....OOOOOOOO+++++..                       ",
"                   ...@@..XXXXXO++++++.                         ",
"                   ...@@..XXXXXO++++++.                         ",
"                 ..OOO..@@.OOOO+++++..                          ",
"                 ..O++++............OO.                         ",
"                 ..O++++............OO.                         ",
"                 ..+++@@..XXXOOOOOOOOOX..                       ",
"                 ..+++@@..XXXOOOOOOOOOX..                       ",
"                   .OO@@..XXXXXXOOOOOO#..                       ",
"                   .OO@@..XXXXXXOOOOOO#..                       ",
"                   .@@@@@@.XX###XX..###..                       ",
"                    ..@@@@.####@XX..#####..                     ",
"                    ..@@@@.####@XX..#####..                     ",
"                      .....####@@@++..#oo..                     ",
"                      .....####@@@++..#oo..                     ",
"                           ..@@@@@++..oXX..                     ",
"                           ..@@@@@++..XXX...                    ",
"                           ..@@@@@++..XXX...                    ",
"                           ..OO@OO..XXX++..o..                  ",
"                           ..OO@OO..XXX++..o..                  ",
"                           ..++OOO..XX+++..Xoo..                ",
"                           ..++OOO..XX+++..Xoo..                ",
"                           ....+++..+++++..OXXoo..              ",
"                          .##@@...##.....XXXOOXXoo.             ",
"                          .##@@...##.....XXXOOXXoo.             ",
"                        ..+XX@@.  ..+++....XXXXXoo.             ",
"                        ..+XX@@.  ..+++....XXXXXoo.             ",
"                        ..XOO..   ..XX+..  .XXXXoo.             ",
"                      ..OOO++..   ....OXX.. .......             ",
"                      ..OOO++..   ....OXX.. .......             ",
"                      ..+++++..     ..OOO..                     ",
"                      ..+++++..     ..OOO..                     ",
"                      .........     ..+++..                     ",
"                      .........     ..+++..                     ",
"                                    .......                     ",
"                                                                ",
"                                                                ",
"                                                                ",
"                                                                "
};
