/* XPM */
static char *_5aa1759c29349eba7ceb3934721f1ecoeSX39ziUJ7ltscR[] = {
/* columns rows colors chars-per-pixel */
"64 64 26 1 ",
"  c #3A211C",
". c #3A3527",
"X c #2E3C3F",
"o c #45283C",
"O c #663931",
"+ c #675C3A",
"@ c #3F3F74",
"# c #475A5E",
"$ c #8F563B",
"% c #BD9B75",
"& c #C9AD59",
"* c #D9A066",
"= c #C6AE71",
"- c #E9B47F",
"; c #F6CC4D",
": c #FFEE6C",
"> c #FFFB6C",
", c #D1BA8A",
"< c #D5C496",
"1 c #EEC39A",
"2 c #DACFA3",
"3 c #E3DBB0",
"4 c #F6D9BD",
"5 c #E7E4BB",
"6 c #EDEBCB",
"7 c #CBDBFC",
/* pixels */
"%%%%%%%%%%%%%%%%%%%%%%%%%%%OOOOOOOOOO%%O%%%%%%%%%%%%%%%%%%%%%%%%",
"%%%%%%%%%%%%%%%%%%%%%%%%%%O$OO$O$$$$O$$%%%%%%%%%%%%%%%%%%%%%%%%%",
"%%2255<<22<<<<55,,,<<5522O$$$OO$OOO$$O$$22<<<<55,,,<<552266,,2%%",
"%%2255<<22<<<<55,,,<<552OO$$$$O$$$$O$OO$O2O<<<55,,,<<552266,,2%%",
"%%55,,<<<<5555,,2222222<<O$OO$OO$$$O$$OOOO5555,,2222222<<22<<5%%",
"%%55,,<<<<5555,,2222222<<OO***O$O$$$O$O$$O5555,,2222222<<22<<5%%",
"%%3333<<22,,==,,,,,33<<33*1111*OOOO$O$OOOO,,==,,,,,33<<332255,%%",
"%%3333<<22,,==,,,,,33<<33-11o$4-OOO$O$OO$O,,==,,,,,33<<332255,%%",
"%%,,3322<<332233222332222-$o-11-OOO*-O$O$O332233222332222<<,,=%%",
"%%,,3322<<332233222332222-ooo$1-O**14*$OOO332233222332222<<,,=%%",
"%%,,==,,22333322<<<2233<<-@77-11---11-O$O2333322<<<2233<<2222<%%",
"%%,,==,,22333322<<<2233<--11111111111-$OO2333322<<<2233<<2222<%%",
"%%5522<<<<663322,,,<<,,2*11111111111-*OO<<663322,,,<<,,2222<<2%%",
"%%5522<<<<663322,,,<<,,2*11111111---*;;;;;663322,,,<<,,2222<<2%%",
"%%<<2222<<,,66,,===,,<<<<-111111-**;;;;;:;,,66,,===,,<<<<22552%%",
"%%<<2222<<,,66,,===,,<<<<**1114--;;;:::::;,,66,,===,,<<<<22552%%",
"%%3333<<,,,,==,,,,,33<<55*-11--**;;;;::::;,,==,,,,,33<<553322<%%",
"%%3333<<,,,,==,,,,,33<<553****:;;:::;:>>>;,,==,,,,,33<<553322<%%",
"%%==,,<<2222<<,,===,,22,,552;&:;:::::;:;;;22<<,,===,,22,,55223%%",
"%%==,,<<2222<<,,===,,22,,552;&:;:::::;;;;222<<,,===,,22,,55223%%",
"%%<<223322<<223322222==,,<<,;&:;::::::;;22<<223322222==,,==<<<%%",
"%%<<223322<<223322222==,,,,;;&:;::::::;;22<<223322222==,,==<<<%%",
"%%<<22223322<<2233333,,,,,,;:&:;>::::>;;3322<<2233333,,,,<<22<%%",
"%%<<22223322<<2233333,,,,22;:&>;>>>>>>;;3322<<2233333,,,,<<22<%%",
"%%22<<33<<,,22<<55566332222;:+>;>>>>>>;;<<,,22<<555663322<<662%%",
"%%22<<33<<,,22<<55566332222;:.>;>>>>>>;;<<,,22<<555663322<<662%%",
"%%22555533,,,,33===33223322;>.>;:>>>>:;;33,,,,33===33223366,,<%%",
"%%22555533,,,,33===33223333;>>>;:>>>>:;533,,,,33===33223366,,<%%",
"%%33==,,66333322,,,==332233;>>>;:>>>>:;,66333322,,,==3322,,<<2%%",
"%%33==,,66333322,,,==5522<<;>>>;:>>>>:;,66333322,,,==3322,,<<2%%",
"%%2255<<22<<<<55,,,==5522<<;>>>;:>>>>:;<22<<<<55,,,<<552266,,2%%",
"%%2255<<22<<<<55,,,==55<<33;>>>;:>>>>:;<22<<<<55,,,<<552266,,2%%",
"%%22,,<<<<<<3322,,,5555<<22;>>>;:>>>>:;<<<,,==,,,,,33<<332255,%%",
"%%22,,<<<<<<3322,,,55553322;>>>;:>>>>:;<<<,,==,,,,,33<<332255,%%",
"%%2255<<22<<<<55,,,<<552266;>>>;:>>>>:;<22<<<<55,,,<<552266,,2%%",
"%%2255<<22<<<<55,,,<<552266;>::;>>>>>>;<22<<<<55,,,<<552266,,2%%",
"%%55,,55<<5555,,2222222<<22;>::;>>>>>>;<<<5555,,2222222<<22<<5%%",
"%%55,,55<<5555,,2222222<<22;:::;>>>>>>;<<<5555,,2222222<<22<<5%%",
"%%3333<<22,,==,,,,,33<<3322;:::;;>>>>>;<22,,==,,,,,33<<332255,%%",
"%%3333<<22,,==,,,,,33<<3322;:::*;>>>>>;<22,,==,,,,,33<<332255,%%",
"%%,,3322<<332233222332222<<;:::*-;;>>;;;<<332233222332222<<,,=%%",
"%%,,3322<<332233222332222<<;:::*-;;;;-*;<<332233222332222<<,,=%%",
"%%,,==,,22333322<<<2233<<22;::**1-----*;22332233<<<2233<<2222<%%",
"%%,,==,,22333322<<<2233<<22;;*1*111111*;22333333<<<2233<<2222<%%",
"%%5522<<<<663322,,,<<,,2222;;*1*1111111*<<6633,2,,,<<,,2222<<2%%",
"%%5522<<<<663322,,,<<,,2222;;*-*1111111*<<66<<33,,22<,,2222<<2%%",
"%%<<2222<<,,66,,===,,<<<<22;;X**111111-*<<,,<<<<22,,,<<<<22552%%",
"%%<<2222<<,,66,,===,,<<<<2255X#*11111-**<<,,222222,,,<<<<22552%%",
"%%3333<<,,,,==,,,,,33<<553322X#*-----**<,,,,22<<<<,,3<<553322<%%",
"%%3333<<,,,,==,,,,,33<<553322X##*****#X<,,,,3322<<,,3<<553322<%%",
"%%==,,<<2222<<,,===,,22,,5522X########X<2222332222,,,22,,55223%%",
"%%==,,<<2222<<,,===,,22,,5522X########X<2222,,<<22,,,22,,55223%%",
"%%<<223322<<223322222==,,==<<X#######XX322<<,,<<<<332==,,==<<<%%",
"%%<<223322<<223322222==,,==<<X#######XX322<<,,==<<332==,,==<<<%%",
"%%<<22223322<<2233333,,,,<<22X#######X223322,,====223,,,,<<22<%%",
"%%<<22223322<<2233333,,,,<<22X#######X223322,,66==223,,,,<<22<%%",
"%%22<<33<<,,22<<555663322<<66X######XX33<<,,,,6666<<63322<<662%%",
"%%22<<33<<,,22<<555663322<<66X######X<33<<,,223366<<63322<<662%%",
"%%22555533,,,,33===33223366,,X######X55533,,223333333223366,,<%%",
"%%22555533,,,,33===33223366,,        55533,2223333333223366,,<%%",
"%%33==,,66333322,,,==3322,,<<         ,,663222333322=3322,,<<2%%",
"%%33==,,66333322,,,==3322,,           ,,663333332222=3322,,<<2%%",
"%%%%%%%%%%%%%%%%%%%%%%%%%             %%%%%%%%%%%%%%%%%%%%%%%%%%",
"%%%%%%%%%%%%%%%%%%%%%%%%%             %%%%%%%%%%%%%%%%%%%%%%%%%%"
};
