/* XPM */
static char *_577a068f4774aa5d3050dc710271d178dYtrfM1jIRCZDKq[] = {
/* columns rows colors chars-per-pixel */
"64 64 4 1 ",
"  c #110F24",
". c #1F1D31",
"X c #2D2A48",
"o c #514E70",
/* pixels */
"                                                                ",
"                                                                ",
" ooooooooooooooooooooo ooooooooooooooooooooooooo oooooooooooooo ",
" o...................X o.......................X o............X ",
" .X..................X ........................X .............X ",
" ....................X ........................X .............X ",
" ....................X ........................X .............X ",
" ....................X ........................X .............X ",
" ....................X ........................X .............X ",
" ....................X ........................X .............X ",
" ....................X ........................X .............X ",
" ....................X ........................X .............X ",
" ....................X ........................X .............X ",
" ....................X ........................X .............X ",
" ....................X ........................X .............X ",
" XXXXXXXXXXXXXXXXXXXXX XXXXXXXXXXXXXXXXXXXXXXXXX XXXXXXXXXXXXXX ",
"                                                                ",
" ooooooo ooooooooooooooooooooooooo ooooooooooooooooooooo oooooo ",
" o.....X o.......................X o...................X o....X ",
" ......X ........................X ....................X .....X ",
" ......X ........................X ....................X .....X ",
" ......X ........................X ....................X .....X ",
" ......X ........................X ....................X .....X ",
" ......X ........................X ....................X .....X ",
" ......X ........................X ....................X .....X ",
" ......X ........................X ....................X .....X ",
" ......X ........................X ....................X .....X ",
" ......X ........................X ....................X .....X ",
" ......X ........................X ....................X .....X ",
" ......X ........................X ....................X .....X ",
" ......X ........................X ....................X .....X ",
" XXXXXXX XXXXXXXXXXXXXXXXXXXXXXXXX XXXXXXXXXXXXXXXXXXXXX XXXXXX ",
"                                                                ",
" ooooooooooooooooooooooo ooooooooooooooooo oooooooooooooooooooo ",
" o.....................X o...............X o..................X ",
" ......................X ................X ...................X ",
" ......................X ................X ...................X ",
" ......................X ................X ...................X ",
" ......................X ................X ...................X ",
" ......................X ................X ...................X ",
" ......................X ................X ...................X ",
" ......................X ................X ...................X ",
" ......................X ................X ...................X ",
" ......................X ................X ...................X ",
" ......................X ................X ...................X ",
" ......................X ................X ...................X ",
" XXXXXXXXXXXXXXXXXXXXXXX XXXXXXXXXXXXXXXXX XXXXXXXXXXXXXXXXXXXX ",
"                                                                ",
" oooooooooooooo ooooooooooooooooooooooooooooooo ooooooooooooooo ",
" o............X o.............................X o.............X ",
" .............X ..............................X ..............X ",
" .............X ..............................X ..............X ",
" .............X ..............................X ..............X ",
" .............X ..............................X ..............X ",
" .............X ..............................X ..............X ",
" .............X ..............................X ..............X ",
" .............X ..............................X ..............X ",
" .............X ..............................X ..............X ",
" .............X ..............................X ..............X ",
" .............X ..............................X ..............X ",
" .............X ..............................X ..............X ",
" XXXXXXXXXXXXXX XXXXXXXXXXXXXXXXXXXXXXXXXXXXXXX XXXXXXXXXXXXXXX ",
"                                                                ",
"                                                                "
};
