/* XPM */
static char * wall_xpm[] = {
"64 64 155 2",
"  	c #B19E85",
". 	c #B7A48B",
"+ 	c #AC9D85",
"@ 	c #A49077",
"# 	c #9F8A76",
"$ 	c #977E6A",
"% 	c #98846F",
"& 	c #917763",
"* 	c #977C68",
"= 	c #9D8570",
"- 	c #9D8972",
"; 	c #A48B77",
"> 	c #A5927C",
", 	c #AB977E",
"' 	c #B29F89",
") 	c #B2A48B",
"! 	c #AC9883",
"~ 	c #98836D",
"{ 	c #BEB196",
"] 	c #B8AA91",
"^ 	c #A5977E",
"/ 	c #A99B83",
"( 	c #B6AA91",
"_ 	c #B7A690",
": 	c #FFF7D6",
"< 	c #FFEAC4",
"[ 	c #F7D7B7",
"} 	c #FFE0BA",
"| 	c #E3C19F",
"1 	c #FFE3C1",
"2 	c #EAC4A4",
"3 	c #F4CEAE",
"4 	c #E1B99A",
"5 	c #E4C1A3",
"6 	c #D7AE90",
"7 	c #FFFFD8",
"8 	c #FFFFE1",
"9 	c #FFEDCC",
"0 	c #FFF6CE",
"a 	c #FFF4CE",
"b 	c #AFA189",
"c 	c #BAB297",
"d 	c #FFFFEB",
"e 	c #F4D6B1",
"f 	c #FFD8B9",
"g 	c #F8D5B7",
"h 	c #FFE1BF",
"i 	c #E6C0A3",
"j 	c #FFFFE0",
"k 	c #A09077",
"l 	c #B6A990",
"m 	c #FFFFF4",
"n 	c #E6D6B8",
"o 	c #D2C0A2",
"p 	c #CAB298",
"q 	c #D2BAA0",
"r 	c #C3B092",
"s 	c #C0A88B",
"t 	c #D0B299",
"u 	c #B19179",
"v 	c #BB9F88",
"w 	c #C2A990",
"x 	c #D8C1A2",
"y 	c #E0CBB0",
"z 	c #E1D0B1",
"A 	c #E9D9B9",
"B 	c #E8D8B7",
"C 	c #DED0B1",
"D 	c #DAC8AA",
"E 	c #C8AA91",
"F 	c #BEA88B",
"G 	c #D9C2A8",
"H 	c #B89A81",
"I 	c #C8B092",
"J 	c #D1B89A",
"K 	c #EDE0BE",
"L 	c #F1E2C1",
"M 	c #F0E0BE",
"N 	c #CAB89A",
"O 	c #927C66",
"P 	c #F8E0BA",
"Q 	c #B08E76",
"R 	c #A98670",
"S 	c #E8D2B2",
"T 	c #E0D0AF",
"U 	c #E3D9B9",
"V 	c #DECEB0",
"W 	c #BEAF97",
"X 	c #BAA188",
"Y 	c #D9C8A7",
"Z 	c #CEBDA0",
"` 	c #BCAF97",
" .	c #E0C9AA",
"..	c #D7C8A6",
"+.	c #EDCCA9",
"@.	c #B09077",
"#.	c #BAA085",
"$.	c #D8BEA2",
"%.	c #E0B797",
"&.	c #B39880",
"*.	c #C0A289",
"=.	c #FFE3C3",
"-.	c #EAC1A2",
";.	c #AB9076",
">.	c #B59780",
",.	c #AB8E78",
"'.	c #A98971",
").	c #846A56",
"!.	c #E4CEB0",
"~.	c #907661",
"{.	c #A8856D",
"].	c #FFFFDF",
"^.	c #BEAC92",
"/.	c #C5B399",
"(.	c #AA947E",
"_.	c #FFF2CE",
":.	c #F8EAC8",
"<.	c #FFFFF6",
"[.	c #FFFFFF",
"}.	c #C4B79B",
"|.	c #BFB297",
"1.	c #EAC0A0",
"2.	c #A18169",
"3.	c #CBBFA4",
"4.	c #F8F0CD",
"5.	c #896D59",
"6.	c #CDA486",
"7.	c #EDCDAD",
"8.	c #E8D6B8",
"9.	c #947C69",
"0.	c #907462",
"a.	c #927C69",
"b.	c #B2987D",
"c.	c #EEE1C0",
"d.	c #EDDFC0",
"e.	c #9D826E",
"f.	c #D6C8A9",
"g.	c #AA927D",
"h.	c #D6C5A8",
"i.	c #FFFFE3",
"j.	c #B19B85",
"k.	c #D0B59A",
"l.	c #A58C75",
"m.	c #FFE6C4",
"n.	c #FFFFEA",
"o.	c #FFFFEE",
"p.	c #C5B99E",
"q.	c #B7AA8F",
"r.	c #B2A489",
"s.	c #C3B89D",
"t.	c #B6AA8F",
"u.	c #BCB195",
"v.	c #C2B79B",
"w.	c #CAAB8F",
"x.	c #B8987F",
"  . +   @ # $ % & & * $ = - ; ; @ > , ' ) + ! ! > - = = ~ = ; ;   . +   @ # $ % & & * $ = - ; ; @ > , ' ) + ! ! > - = = ~ = ; ; ",
"{ , ] + + ^ ! #   . + + + ^ ^ > @ @ # / - - @ + , + ) ) ) ( _ ) { , ] + + ^ ! #   . + + + ^ ^ > @ @ # / - - @ + , + ) ) ) ( _ ) ",
",   : < [ } | 1 1 2 3 4 5 6 [ 3 7 : 8 7 9 0 } } } : a 7 < 0 b c ,   : < [ } | 1 1 2 3 4 5 6 [ 3 7 : 8 7 9 0 } } } : a 7 < 0 b c ",
"+ = 1 d e } < < 1 0 f g 3 4 h i e 9 7 0 j d d 7 7 7 < } a a + + + = 1 d e } < < 1 0 f g 3 4 h i e 9 7 0 j d d 7 7 7 < } a a + + ",
"k l 8 m n o p q r s t u u v w q x y z z z A B C C D o o < 7   ! k l 8 m n o p q r s t u u v w q x y z z z A B C C D o o < 7   ! ",
"& ^ j 8 r E F G x t q H w v I J x o z K L M K B o D x N 9 7 '   & ^ j 8 r E F G x t q H w v I J x o z K L M K B o D x N 9 7 '   ",
"; O P < Q R p p q z D D G o J J q x D z A K S T D U V z a 7 W ) ; O P < Q R p p q z D D G o J J q x D z A K S T D U V z a 7 W ) ",
"! & 9 } X G D z z G x t E E E E I p J o x o x Y o Z D z 8 7 ` ) ! & 9 } X G D z z G x t E E E E I p J o x o x Y o Z D z 8 7 ` ) ",
"% ~ e e E o z D z  .G q p t E t J t t t t q J z ..C o Z j < ! > % ~ e e E o z D z  .G q p t E t J t t t t q J z ..C o Z j < ! > ",
"% # +.4 H @.H s #.p D D G J N J $.J q q $.q y A z D z o a } > , % # +.4 H @.H s #.p D D G J N J $.J q q $.q y A z D z o a } > , ",
"% % 3 %.&.u u u X *.*.I v w p J q q x x G $.$.t o D o J =.} , ) % % 3 %.&.u u u X *.*.I v w p J q q x x G $.$.t o D o J =.} , ) ",
"& = | -.;.u >.,.'.H u u X p p J $.x G q q $.y A z D w p < a ) ' & = | -.;.u >.,.'.H u u X p p J $.x G q q $.y A z D w p < a ) ' ",
").= 2 } I u w &.u ,.u H H *.E t $. . .!.G  .D x o q t I 1 <   . ).= 2 } I u w &.u ,.u H H *.E t $. . .!.G  .D x o q t I 1 <   . ",
"~.~ } e I {.y I r p p J t p p t $. . .z G q p t t p J J 0 ].^./.~.~ } e I {.y I r p p J t p p t $. . .z G q p t t p J J 0 ].^./.",
"(.O _.< u '.N p D D y G q I I J I t $.$.J t t J x A L :.<.[.}.|.(.O _.< u '.N p D D y G q I I J I t $.$.J t t J x A L :.<.[.}.|.",
"= ).1.a 2.q s J D G I t I p : < [ } | 1 1 2 3 4 5 6 [ 3 [.[.3.3.= ).1.a 7 : 8 7 9 0 } } } : a 7 < 0 J J J J x S S M K 4.[.[.3.3.",
"= 5.6.| #.N r I  .I &.w u H 1 d e } < < 1 0 f g 3 4 h i 8 d c c = 5.6.| 0 9 7 0 j d d 7 7 7 < } a a *.E I J  .y Y D o D 8 d c c ",
"> ; 3 7.u E D q E p H v p x 8 m   . +   @ # $ % & & * $ = - ; ; @ > , ' ) + ! ! > - = = ~ = ; ; < 7 *.*.*.I  .8.z S D D a a + > ",
"9.0.5 7.'.H u #.F Z X s w p j 8 { , ] + + ^ ! #   . + + + ^ ^ > @ @ # / - - @ + , + ) ) ) ( _ ) 9 7 x  .z o D S  .o J r 1 1 , ^ ",
"a.$ [ h &.H s s o b.I  .c.d.P < ,   : < [ } | 1 1 2 3 4 5 6 [ 3 7 : 8 7 9 0 } } } : a 7 < 0 b c a 7  .z z z z D $.G w q < 9 .   ",
"e.~ 3 f *.p J D z D o z z n 9 } + = 1 d e } < < 1 0 f g 3 4 h i e 9 7 0 j d d 7 7 7 < } a a + + 8 7 U z S S  . .z N J o a 9 ,   ",
"= , 0 [ s I D $.o f.z G D G e e k l 8 m n o p q r s t u u v w q x y z z z A B C C D o o < 7   ! j < N D D s y x D o D D : 7 . ^.",
"g.  } < p x x D J D z G z J +.4 & ^ j 8 r E F G x t q H w v I J x o z K L M K B o D x N 9 7 '   a } f.z z z f.h.V  .y y j 8 ^.|.",
"- ! 0 < q J G D z z z A V D 3 %.; O P < Q R p p q z D D G o J J q x D z A K S T D U V z a 7 W ) =.} h.o o o D D y y  .y 8 i.{ ] ",
". @ e =.x y A A c.z z z z D | -.! & 9 } X G D z z G x t E E E E I p J o x o x Y o Z D z 8 7 ` ) < a z V  .S S S S A S G : 7 . j.",
", > 1 =.x z A K M K c.L L L 2 } % ~ e e E o z D z  .G q p t E t J t t t t q J z ..C o Z j < ! > 1 < G D  . . .x N p q x _.=.# ; ",
"g.> 1 9 x  .z z B A z A A D } e % # +.4 H @.H s #.p D D G J N J $.J q q $.q y A z D z o a } > , 0 ].o x x F w p p t J q _.:   ' ",
"@ @ =.=.t $.$.E x o s X X E _.< % % 3 %.&.u u u X *.*.I v w p J q q x x G $.$.t o D o J =.} , ) <.[.p s I I t k.J t $.G j 9 _ _ ",
"l.- } < =.m._.n.d 8 8 d : : } _.& = | -.;.u >.,.'.H u u X p p J $.x G q q $.y A z D w p < a ) ' 1 e f 1 =.=.=.=.: 0 : i.i.n.^.] ",
", ! =.=.< < =.f 3 7.7.+.[ 1 < 7 ).= 2 } I u w &.u ,.u H H *.E t $. . .!.G  .D x o q t I 1 <   . : : f 1 =.< < 0 7 o.7 < 8 d ' ' ",
"^.] ] ^.] ) |.p.p.] ] c ] ] ) . ~.~ } e I {.y I r p p J t p p t $. . .z G q p t t p J J 0 ].^./.] . . q..   , ^.r..     . W ] ] ",
"p.p./.+ l |.|.p.s.c ) + ] ^ ' ! (.O _.< u '.N p D D y G q I I J I t $.$.J t t J x A L :.<.[.}.|.! +   ] ) t.u., ) |.}.|.{ v.{ . ",
"  . +   @ # $ % & & * $ = - ; ; = ).1.a 2.q s J D G I t I p t E E E J J J J x S S M K 4.[.[.3.3.@ > , ' ) + ! ! > - = = ~ = ; ; ",
"{ , ] + + ^ ! #   . + + + ^ ^ > = 5.6.| #.N r I  .I &.w u H *.w.*.*.*.E I J  .y Y D o D 8 d c c @ @ # / - - @ + , + ) ) ) ( _ ) ",
",   : < [ } | 1 1 2 3 4 5 6 [ 3 > ; 3 7.u E D q E p H v p x J N x.H *.*.*.I  .8.z S D D a a + > 7 : 8 7 9 0 } } } : a 7 < 0 b c ",
"+ = 1 d e } < < 1 0 f g 3 4 h i 9.0.5 7.'.H u #.F Z X s w p J q  .Y x  .z o D S  .o J r 1 1 , ^ e 9 7 0 j d d 7 7 7 < } a a + + ",
"k l 8 m n o p q r s t u u v 1.a a.$ [ h &.H s s o b.I  .c.d.A z A J  .z z z z D $.G w q < 9 .   [.[.z z z A B C C D o o < 7   ! ",
"& ^ j 8 r E F G x t q H w v 6.| e.~ 3 f *.p J D z D o z z n 8.8.c.4.U z S S  . .z N J o a 9 ,   8 d z K L M K B o D x N 9 7 '   ",
"; O P < Q R p p q z D D G o 3 7.= , 0 [ s I D $.o f.z G D G y o V o N D D s y x D o D D : 7 . ^.a a D z A K S T D U V z a 7 W ) ",
"! & 9 } X G D z z G x t E E 5 7.g.  } < p x x D J D z G z J G J o o f.z z z f.h.V  .y y j 8 ^.|.1 1 J o x o x Y o Z D z 8 7 ` ) ",
"% ~ e e E o z D z  .G q p t [ h - ! 0 < q J G D z z z A V D D  .G h.h.o o o D D y y  .y 8 i.{ ] < 9 t t t q J z ..C o Z j < ! > ",
"% # +.4 H @.H s #.p D D G J 3 f . @ e =.x y A A c.z z z z D y 8.d.D z V  .S S S S A S G : 7 . j.a 9 q q $.q y A z D z o a } > , ",
"% % 3 %.&.u u u X *.*.I v w 0 [ , > 1 =.x z A K M K c.L L L A K o o G D  . . .x N p q x _.=.# ; : 7 x x G $.$.t o D o J =.} , ) ",
"& = | -.;.u >.,.'.H u u X p } < g.> 1 9 x  .z z B A z A A D D N o J o x x F w p p t J q _.:   ' j 8 G q q $.y A z D w p < a ) ' ",
").= 2 } I u w &.u ,.u H H *.0 < @ @ =.=.t $.$.E x o s X X E p I J x p s I I t k.J t $.G j 9 _ _ 8 i. .!.G  .D x o q t I 1 <   . ",
"~.~ } e I {.y I r p p J t p e =.l.- } < =.m._.n.d 8 8 d : : } _.1 e f 1 =.=.=.=.: 0 : i.i.n.^.] : 7  .z G q p t t p J J 0 ].^./.",
"(.O _.< u '.N p D D y G q I 1 =., ! =.=.< < =.f 3 7.7.+.[ 1 < 7 : : f 1 =.< < 0 7 o.7 < 8 d ' ' _.=.$.$.J t t J x A L :.<.[.}.|.",
"= ).1.a 2.q s J D G I t I p 1 9 ^.] ] ^.] ) |.p.p.] ] c ] ] ) . ] . . q..   , ^.r..     . W ] ] _.: J J J J x S S M K 4.[.[.3.3.",
"= 5.6.| #.N r I  .I &.w u H =.=.p.p./.+ l |.|.p.s.c ) + ] ^ ' ! ! +   ] ) t.u., ) |.}.|.{ v.{ . j 9 *.E I J  .y Y D o D 8 d c c ",
"> ; 3 7.u E D q E p H v p x } < =.m._.n.d 8 8 d : : } D a a + > > ; 3 7.1 e f 1 =.=.=.=.: 0 : i.i.n.*.*.*.I  .8.z S D D a a + > ",
"9.0.5 7.'.H u #.F Z X s w p =.=.< < =.f 3 7.7.+.[ 1 < r 1 1 , ^ 9.0.5 7.: : f 1 =.< < 0 7 o.7 < 8 d x  .z o D S  .o J r 1 1 , ^ ",
"a.$ [ h &.H s s o b.I  .c.d.A z A J  .z z z z D $.G w q < 9 .   a.$ [ h &.H s s o b.I  .c.d.A z A J  .z z z z D $.G w q < 9 .   ",
"e.~ 3 f *.p J D z D o z z n 8.8.c.4.U z S S  . .z N J o a 9 ,   e.~ 3 f *.p J D z D o z z n 8.8.c.4.U z S S  . .z N J o a 9 ,   ",
"= , 0 [ s I D $.o f.z G D G y o V o N D D s y x D o D D : 7 . ^.= , 0 [ s I D $.o f.z G D G y o V o N D D s y x D o D D : 7 . ^.",
"g.  } < p x x D J D z G z J G J o o f.z z z f.h.V  .y y j 8 ^.|.g.  } < p x x D J D z G z J G J o o f.z z z f.h.V  .y y j 8 ^.|.",
"- ! 0 < q J G D z z z A V D D  .G h.h.o o o D D y y  .y 8 i.{ ] - ! 0 < q J G D z z z A V D D  .G h.h.o o o D D y y  .y 8 i.{ ] ",
". @ e =.x y A A c.z z z z D y 8.d.D z V  .S S S S A S G : 7 . j.. @ e =.x y A A c.z z z z D y 8.d.D z V  .S S S S A S G : 7 . j.",
", > 1 =.x z A K M K c.L L L A K o o G D  . . .x N p q x _.=.# ; , > 1 =.x z A K M K c.L L L A K o o G D  . . .x N p q x _.=.# ; ",
"g.> 1 9 x  .z z B A z A A D D N o J o x x F w p p t J q _.:   ' g.> 1 9 x  .z z B A z A A D D N o J o x x F w p p t J q _.:   ' ",
"@ @ =.=.t $.$.E x o s X X E p I J x p s I I t k.J t $.G j 9 _ _ @ @ =.=.t $.$.E x o s X X E p I J x p s I I t k.J t $.G j 9 _ _ ",
"l.- } < =.m._.n.d 8 8 d : : } _.1 e f 1 =.=.=.=.: 0 : i.i.n.^.] l.- } < =.m._.n.d 8 8 d : : } _.1 e f 1 =.=.=.=.: 0 : i.i.n.^.] ",
", ! =.=.< < =.f 3 7.7.+.[ 1 < 7 : : f 1 =.< < 0 7 o.7 < 8 d ' ' , ! =.=.< < =.f 3 7.7.+.[ 1 < 7 : : f 1 =.< < 0 7 o.7 < 8 d ' ' ",
"^.] ] ^.] ) |.p.p.] ] c ] ] ) . ] . . q..   , ^.r..     . W ] ] ^.] ] ^.] ) |.p.p.] ] c ] ] ) . ] . . q..   , ^.r..     . W ] ] ",
"p.p./.+ l |.|.p.s.c ) + ] ^ ' ! ! +   ] ) t.u., ) |.}.|.{ v.{ . p.p./.+ l |.|.p.s.c ) + ] ^ ' ! ! +   ] ) t.u., ) |.}.|.{ v.{ . "};
